<?xml version="1.0" standalone="no"?>
<!DOCTYPE svg PUBLIC "-//W3C//DTD SVG 1.1//EN" "http://www.w3.org/Graphics/SVG/1.1/DTD/svg11.dtd">
<svg version="1.1" width="1200" height="518" onload="init(evt)" viewBox="0 0 1200 518" xmlns="http://www.w3.org/2000/svg" xmlns:xlink="http://www.w3.org/1999/xlink">
<!-- Flame graph stack visualization. See https://github.com/brendangregg/FlameGraph for latest version, and http://www.brendangregg.com/flamegraphs.html for examples. -->
<!-- NOTES:  -->
<defs>
	<linearGradient id="background" y1="0" y2="1" x1="0" x2="0" >
		<stop stop-color="#eeeeee" offset="5%" />
		<stop stop-color="#eeeeb0" offset="95%" />
	</linearGradient>
</defs>
<style type="text/css">
	text { font-family:Verdana; font-size:12px; fill:rgb(0,0,0); }
	#search, #ignorecase { opacity:0.1; cursor:pointer; }
	#search:hover, #search.show, #ignorecase:hover, #ignorecase.show { opacity:1; }
	#subtitle { text-anchor:middle; font-color:rgb(160,160,160); }
	#title { text-anchor:middle; font-size:17px}
	#unzoom { cursor:pointer; }
	#frames > *:hover { stroke:black; stroke-width:0.5; cursor:pointer; }
	.hide { display:none; }
	.parent { opacity:0.5; }
</style>
<script type="text/ecmascript">
<![CDATA[
	"use strict";
	var details, searchbtn, unzoombtn, matchedtxt, svg, searching, currentSearchTerm, ignorecase, ignorecaseBtn;
	function init(evt) {
		details = document.getElementById("details").firstChild;
		searchbtn = document.getElementById("search");
		ignorecaseBtn = document.getElementById("ignorecase");
		unzoombtn = document.getElementById("unzoom");
		matchedtxt = document.getElementById("matched");
		svg = document.getElementsByTagName("svg")[0];
		searching = 0;
		currentSearchTerm = null;

		// use GET parameters to restore a flamegraphs state.
		var params = get_params();
		if (params.x && params.y)
			zoom(find_group(document.querySelector('[x="' + params.x + '"][y="' + params.y + '"]')));
                if (params.s) search(params.s);
	}

	// event listeners
	window.addEventListener("click", function(e) {
		var target = find_group(e.target);
		if (target) {
			if (target.nodeName == "a") {
				if (e.ctrlKey === false) return;
				e.preventDefault();
			}
			if (target.classList.contains("parent")) unzoom();
			zoom(target);
			if (!document.querySelector('.parent')) {
				clearzoom();
				return;
			}

			// set parameters for zoom state
			var el = target.querySelector("rect");
			if (el && el.attributes && el.attributes.y && el.attributes._orig_x) {
				var params = get_params()
				params.x = el.attributes._orig_x.value;
				params.y = el.attributes.y.value;
				history.replaceState(null, null, parse_params(params));
			}
		}
		else if (e.target.id == "unzoom") clearzoom();
		else if (e.target.id == "search") search_prompt();
		else if (e.target.id == "ignorecase") toggle_ignorecase();
	}, false)

	// mouse-over for info
	// show
	window.addEventListener("mouseover", function(e) {
		var target = find_group(e.target);
		if (target) details.nodeValue = "Function: " + g_to_text(target);
	}, false)

	// clear
	window.addEventListener("mouseout", function(e) {
		var target = find_group(e.target);
		if (target) details.nodeValue = ' ';
	}, false)

	// ctrl-F for search
	// ctrl-I to toggle case-sensitive search
	window.addEventListener("keydown",function (e) {
		if (e.keyCode === 114 || (e.ctrlKey && e.keyCode === 70)) {
			e.preventDefault();
			search_prompt();
		}
		else if (e.ctrlKey && e.keyCode === 73) {
			e.preventDefault();
			toggle_ignorecase();
		}
	}, false)

	// functions
	function get_params() {
		var params = {};
		var paramsarr = window.location.search.substr(1).split('&');
		for (var i = 0; i < paramsarr.length; ++i) {
			var tmp = paramsarr[i].split("=");
			if (!tmp[0] || !tmp[1]) continue;
			params[tmp[0]]  = decodeURIComponent(tmp[1]);
		}
		return params;
	}
	function parse_params(params) {
		var uri = "?";
		for (var key in params) {
			uri += key + '=' + encodeURIComponent(params[key]) + '&';
		}
		if (uri.slice(-1) == "&")
			uri = uri.substring(0, uri.length - 1);
		if (uri == '?')
			uri = window.location.href.split('?')[0];
		return uri;
	}
	function find_child(node, selector) {
		var children = node.querySelectorAll(selector);
		if (children.length) return children[0];
	}
	function find_group(node) {
		var parent = node.parentElement;
		if (!parent) return;
		if (parent.id == "frames") return node;
		return find_group(parent);
	}
	function orig_save(e, attr, val) {
		if (e.attributes["_orig_" + attr] != undefined) return;
		if (e.attributes[attr] == undefined) return;
		if (val == undefined) val = e.attributes[attr].value;
		e.setAttribute("_orig_" + attr, val);
	}
	function orig_load(e, attr) {
		if (e.attributes["_orig_"+attr] == undefined) return;
		e.attributes[attr].value = e.attributes["_orig_" + attr].value;
		e.removeAttribute("_orig_"+attr);
	}
	function g_to_text(e) {
		var text = find_child(e, "title").firstChild.nodeValue;
		return (text)
	}
	function g_to_func(e) {
		var func = g_to_text(e);
		// if there's any manipulation we want to do to the function
		// name before it's searched, do it here before returning.
		return (func);
	}
	function update_text(e) {
		var r = find_child(e, "rect");
		var t = find_child(e, "text");
		var w = parseFloat(r.attributes.width.value) -3;
		var txt = find_child(e, "title").textContent.replace(/\([^(]*\)$/,"");
		t.attributes.x.value = parseFloat(r.attributes.x.value) + 3;

		// Smaller than this size won't fit anything
		if (w < 2 * 12 * 0.59) {
			t.textContent = "";
			return;
		}

		t.textContent = txt;
		// Fit in full text width
		if (/^ *$/.test(txt) || t.getSubStringLength(0, txt.length) < w)
			return;

		for (var x = txt.length - 2; x > 0; x--) {
			if (t.getSubStringLength(0, x + 2) <= w) {
				t.textContent = txt.substring(0, x) + "..";
				return;
			}
		}
		t.textContent = "";
	}

	// zoom
	function zoom_reset(e) {
		if (e.attributes != undefined) {
			orig_load(e, "x");
			orig_load(e, "width");
		}
		if (e.childNodes == undefined) return;
		for (var i = 0, c = e.childNodes; i < c.length; i++) {
			zoom_reset(c[i]);
		}
	}
	function zoom_child(e, x, ratio) {
		if (e.attributes != undefined) {
			if (e.attributes.x != undefined) {
				orig_save(e, "x");
				e.attributes.x.value = (parseFloat(e.attributes.x.value) - x - 10) * ratio + 10;
				if (e.tagName == "text")
					e.attributes.x.value = find_child(e.parentNode, "rect[x]").attributes.x.value + 3;
			}
			if (e.attributes.width != undefined) {
				orig_save(e, "width");
				e.attributes.width.value = parseFloat(e.attributes.width.value) * ratio;
			}
		}

		if (e.childNodes == undefined) return;
		for (var i = 0, c = e.childNodes; i < c.length; i++) {
			zoom_child(c[i], x - 10, ratio);
		}
	}
	function zoom_parent(e) {
		if (e.attributes) {
			if (e.attributes.x != undefined) {
				orig_save(e, "x");
				e.attributes.x.value = 10;
			}
			if (e.attributes.width != undefined) {
				orig_save(e, "width");
				e.attributes.width.value = parseInt(svg.width.baseVal.value) - (10 * 2);
			}
		}
		if (e.childNodes == undefined) return;
		for (var i = 0, c = e.childNodes; i < c.length; i++) {
			zoom_parent(c[i]);
		}
	}
	function zoom(node) {
		var attr = find_child(node, "rect").attributes;
		var width = parseFloat(attr.width.value);
		var xmin = parseFloat(attr.x.value);
		var xmax = parseFloat(xmin + width);
		var ymin = parseFloat(attr.y.value);
		var ratio = (svg.width.baseVal.value - 2 * 10) / width;

		// XXX: Workaround for JavaScript float issues (fix me)
		var fudge = 0.0001;

		unzoombtn.classList.remove("hide");

		var el = document.getElementById("frames").children;
		for (var i = 0; i < el.length; i++) {
			var e = el[i];
			var a = find_child(e, "rect").attributes;
			var ex = parseFloat(a.x.value);
			var ew = parseFloat(a.width.value);
			var upstack;
			// Is it an ancestor
			if (0 == 0) {
				upstack = parseFloat(a.y.value) > ymin;
			} else {
				upstack = parseFloat(a.y.value) < ymin;
			}
			if (upstack) {
				// Direct ancestor
				if (ex <= xmin && (ex+ew+fudge) >= xmax) {
					e.classList.add("parent");
					zoom_parent(e);
					update_text(e);
				}
				// not in current path
				else
					e.classList.add("hide");
			}
			// Children maybe
			else {
				// no common path
				if (ex < xmin || ex + fudge >= xmax) {
					e.classList.add("hide");
				}
				else {
					zoom_child(e, xmin, ratio);
					update_text(e);
				}
			}
		}
		search();
	}
	function unzoom() {
		unzoombtn.classList.add("hide");
		var el = document.getElementById("frames").children;
		for(var i = 0; i < el.length; i++) {
			el[i].classList.remove("parent");
			el[i].classList.remove("hide");
			zoom_reset(el[i]);
			update_text(el[i]);
		}
		search();
	}
	function clearzoom() {
		unzoom();

		// remove zoom state
		var params = get_params();
		if (params.x) delete params.x;
		if (params.y) delete params.y;
		history.replaceState(null, null, parse_params(params));
	}

	// search
	function toggle_ignorecase() {
		ignorecase = !ignorecase;
		if (ignorecase) {
			ignorecaseBtn.classList.add("show");
		} else {
			ignorecaseBtn.classList.remove("show");
		}
		reset_search();
		search();
	}
	function reset_search() {
		var el = document.querySelectorAll("#frames rect");
		for (var i = 0; i < el.length; i++) {
			orig_load(el[i], "fill")
		}
		var params = get_params();
		delete params.s;
		history.replaceState(null, null, parse_params(params));
	}
	function search_prompt() {
		if (!searching) {
			var term = prompt("Enter a search term (regexp " +
			    "allowed, eg: ^ext4_)"
			    + (ignorecase ? ", ignoring case" : "")
			    + "\nPress Ctrl-i to toggle case sensitivity", "");
			if (term != null) search(term);
		} else {
			reset_search();
			searching = 0;
			currentSearchTerm = null;
			searchbtn.classList.remove("show");
			searchbtn.firstChild.nodeValue = "Search"
			matchedtxt.classList.add("hide");
			matchedtxt.firstChild.nodeValue = ""
		}
	}
	function search(term) {
		if (term) currentSearchTerm = term;

		var re = new RegExp(currentSearchTerm, ignorecase ? 'i' : '');
		var el = document.getElementById("frames").children;
		var matches = new Object();
		var maxwidth = 0;
		for (var i = 0; i < el.length; i++) {
			var e = el[i];
			var func = g_to_func(e);
			var rect = find_child(e, "rect");
			if (func == null || rect == null)
				continue;

			// Save max width. Only works as we have a root frame
			var w = parseFloat(rect.attributes.width.value);
			if (w > maxwidth)
				maxwidth = w;

			if (func.match(re)) {
				// highlight
				var x = parseFloat(rect.attributes.x.value);
				orig_save(rect, "fill");
				rect.attributes.fill.value = "rgb(230,0,230)";

				// remember matches
				if (matches[x] == undefined) {
					matches[x] = w;
				} else {
					if (w > matches[x]) {
						// overwrite with parent
						matches[x] = w;
					}
				}
				searching = 1;
			}
		}
		if (!searching)
			return;
		var params = get_params();
		params.s = currentSearchTerm;
		history.replaceState(null, null, parse_params(params));

		searchbtn.classList.add("show");
		searchbtn.firstChild.nodeValue = "Reset Search";

		// calculate percent matched, excluding vertical overlap
		var count = 0;
		var lastx = -1;
		var lastw = 0;
		var keys = Array();
		for (k in matches) {
			if (matches.hasOwnProperty(k))
				keys.push(k);
		}
		// sort the matched frames by their x location
		// ascending, then width descending
		keys.sort(function(a, b){
			return a - b;
		});
		// Step through frames saving only the biggest bottom-up frames
		// thanks to the sort order. This relies on the tree property
		// where children are always smaller than their parents.
		var fudge = 0.0001;	// JavaScript floating point
		for (var k in keys) {
			var x = parseFloat(keys[k]);
			var w = matches[keys[k]];
			if (x >= lastx + lastw - fudge) {
				count += w;
				lastx = x;
				lastw = w;
			}
		}
		// display matched percent
		matchedtxt.classList.remove("hide");
		var pct = 100 * count / maxwidth;
		if (pct != 100) pct = pct.toFixed(1)
		matchedtxt.firstChild.nodeValue = "Matched: " + pct + "%";
	}
]]>
</script>
<rect x="0.0" y="0" width="1200.0" height="518.0" fill="url(#background)"  />
<text id="title" x="600.00" y="24" >Flame Graph</text>
<text id="details" x="10.00" y="501" > </text>
<text id="unzoom" x="10.00" y="24" class="hide">Reset Zoom</text>
<text id="search" x="1090.00" y="24" >Search</text>
<text id="ignorecase" x="1174.00" y="24" >ic</text>
<text id="matched" x="1090.00" y="501" > </text>
<g id="frames">
<g >
<title>std::chrono::operator&gt;&lt;long, (1 samples, 0.36%)</title><rect x="591.6" y="309" width="4.2" height="15.0" fill="rgb(234,0,6)" rx="2" ry="2" />
<text  x="594.57" y="319.5" ></text>
</g>
<g >
<title>ibv_poll_cq (7 samples, 2.50%)</title><rect x="18.4" y="165" width="29.5" height="15.0" fill="rgb(250,209,14)" rx="2" ry="2" />
<text  x="21.43" y="175.5" >ib..</text>
</g>
<g >
<title>std::chrono::_V2::steady_clock::now (4 samples, 1.43%)</title><rect x="372.4" y="309" width="16.9" height="15.0" fill="rgb(248,8,8)" rx="2" ry="2" />
<text  x="375.43" y="319.5" ></text>
</g>
<g >
<title>rxr_rma_write (71 samples, 25.36%)</title><rect x="69.0" y="261" width="299.2" height="15.0" fill="rgb(233,74,27)" rx="2" ry="2" />
<text  x="72.00" y="271.5" >rxr_rma_write</text>
</g>
<g >
<title>ofi_bufpool_get_ibuf (2 samples, 0.71%)</title><rect x="115.4" y="133" width="8.4" height="15.0" fill="rgb(238,207,43)" rx="2" ry="2" />
<text  x="118.36" y="143.5" ></text>
</g>
<g >
<title>efa_post_send_validate (1 samples, 0.36%)</title><rect x="165.9" y="37" width="4.2" height="15.0" fill="rgb(242,104,3)" rx="2" ry="2" />
<text  x="168.93" y="47.5" ></text>
</g>
<g >
<title>ft_free_res (1 samples, 0.36%)</title><rect x="368.2" y="277" width="4.2" height="15.0" fill="rgb(230,117,50)" rx="2" ry="2" />
<text  x="371.21" y="287.5" ></text>
</g>
<g >
<title>efa_av_addr_to_conn (3 samples, 1.07%)</title><rect x="132.2" y="101" width="12.7" height="15.0" fill="rgb(209,168,39)" rx="2" ry="2" />
<text  x="135.21" y="111.5" ></text>
</g>
<g >
<title>efa_post_send_sgl (1 samples, 0.36%)</title><rect x="161.7" y="53" width="4.2" height="15.0" fill="rgb(208,54,53)" rx="2" ry="2" />
<text  x="164.71" y="63.5" ></text>
</g>
<g >
<title>rxr_pkt_entry_sendmsg (22 samples, 7.86%)</title><rect x="123.8" y="149" width="92.7" height="15.0" fill="rgb(235,127,19)" rx="2" ry="2" />
<text  x="126.79" y="159.5" >rxr_pkt_ent..</text>
</g>
<g >
<title>rxr_cq_write_tx_completion (3 samples, 1.07%)</title><rect x="52.1" y="133" width="12.7" height="15.0" fill="rgb(254,39,32)" rx="2" ry="2" />
<text  x="55.14" y="143.5" ></text>
</g>
<g >
<title>rxr_ep_get_peer (2 samples, 0.71%)</title><rect x="359.8" y="181" width="8.4" height="15.0" fill="rgb(218,98,31)" rx="2" ry="2" />
<text  x="362.79" y="191.5" ></text>
</g>
<g >
<title>efa_wq_get_next_wrid_idx_locked (1 samples, 0.36%)</title><rect x="170.1" y="53" width="4.3" height="15.0" fill="rgb(238,145,5)" rx="2" ry="2" />
<text  x="173.14" y="63.5" ></text>
</g>
<g >
<title>ft_spin_for_comp (12 samples, 4.29%)</title><rect x="18.4" y="277" width="50.6" height="15.0" fill="rgb(233,42,13)" rx="2" ry="2" />
<text  x="21.43" y="287.5" >ft_sp..</text>
</g>
<g >
<title>libefa::Node::getNTxCompletion (12 samples, 4.29%)</title><rect x="18.4" y="309" width="50.6" height="15.0" fill="rgb(218,73,1)" rx="2" ry="2" />
<text  x="21.43" y="319.5" >libef..</text>
</g>
<g >
<title>BenchmarkNode::run (140 samples, 50.00%)</title><rect x="600.0" y="437" width="590.0" height="15.0" fill="rgb(250,42,18)" rx="2" ry="2" />
<text  x="603.00" y="447.5" >BenchmarkNode::run</text>
</g>
<g >
<title>ft_host_free (1 samples, 0.36%)</title><rect x="368.2" y="261" width="4.2" height="15.0" fill="rgb(219,102,10)" rx="2" ry="2" />
<text  x="371.21" y="271.5" ></text>
</g>
<g >
<title>rxr_rma_writemsg (71 samples, 25.36%)</title><rect x="69.0" y="229" width="299.2" height="15.0" fill="rgb(216,46,6)" rx="2" ry="2" />
<text  x="72.00" y="239.5" >rxr_rma_writemsg</text>
</g>
<g >
<title>libefa::Server::~Server (1 samples, 0.36%)</title><rect x="368.2" y="309" width="4.2" height="15.0" fill="rgb(213,158,14)" rx="2" ry="2" />
<text  x="371.21" y="319.5" ></text>
</g>
<g >
<title>std::__invoke&lt;void (140 samples, 50.00%)</title><rect x="10.0" y="357" width="590.0" height="15.0" fill="rgb(248,164,15)" rx="2" ry="2" />
<text  x="13.00" y="367.5" >std::__invoke&lt;void</text>
</g>
<g >
<title>rxr_rm_tx_cq_check (3 samples, 1.07%)</title><rect x="52.1" y="117" width="12.7" height="15.0" fill="rgb(218,74,47)" rx="2" ry="2" />
<text  x="55.14" y="127.5" ></text>
</g>
<g >
<title>std::execute_native_thread_routine (140 samples, 50.00%)</title><rect x="10.0" y="421" width="590.0" height="15.0" fill="rgb(227,151,47)" rx="2" ry="2" />
<text  x="13.00" y="431.5" >std::execute_native_thread_routine</text>
</g>
<g >
<title>__GI___clock_gettime (4 samples, 1.43%)</title><rect x="372.4" y="293" width="16.9" height="15.0" fill="rgb(235,30,48)" rx="2" ry="2" />
<text  x="375.43" y="303.5" ></text>
</g>
<g >
<title>std::chrono::operator-&lt;std::chrono::_V2::steady_clock, (47 samples, 16.79%)</title><rect x="393.5" y="309" width="198.1" height="15.0" fill="rgb(239,7,0)" rx="2" ry="2" />
<text  x="396.50" y="319.5" >std::chrono::operator-&lt;st..</text>
</g>
<g >
<title>memset (1 samples, 0.36%)</title><rect x="191.2" y="101" width="4.2" height="15.0" fill="rgb(224,113,8)" rx="2" ry="2" />
<text  x="194.21" y="111.5" ></text>
</g>
<g >
<title>clone (140 samples, 50.00%)</title><rect x="10.0" y="453" width="590.0" height="15.0" fill="rgb(252,134,28)" rx="2" ry="2" />
<text  x="13.00" y="463.5" >clone</text>
</g>
<g >
<title>rxr_pkt_entry_send (28 samples, 10.00%)</title><rect x="98.5" y="165" width="118.0" height="15.0" fill="rgb(224,196,35)" rx="2" ry="2" />
<text  x="101.50" y="175.5" >rxr_pkt_entry_..</text>
</g>
<g >
<title>__memset_avx2_unaligned_erms (1 samples, 0.36%)</title><rect x="191.2" y="85" width="4.2" height="15.0" fill="rgb(252,39,30)" rx="2" ry="2" />
<text  x="194.21" y="95.5" ></text>
</g>
<g >
<title>efa_post_send (16 samples, 5.71%)</title><rect x="128.0" y="117" width="67.4" height="15.0" fill="rgb(214,210,5)" rx="2" ry="2" />
<text  x="131.00" y="127.5" >efa_pos..</text>
</g>
<g >
<title>RmaServer::batch (140 samples, 50.00%)</title><rect x="600.0" y="405" width="590.0" height="15.0" fill="rgb(242,90,47)" rx="2" ry="2" />
<text  x="603.00" y="415.5" >RmaServer::batch</text>
</g>
<g >
<title>ft_post_rma (71 samples, 25.36%)</title><rect x="69.0" y="293" width="299.2" height="15.0" fill="rgb(207,215,50)" rx="2" ry="2" />
<text  x="72.00" y="303.5" >ft_post_rma</text>
</g>
<g >
<title>__memset_avx2_unaligned_erms (1 samples, 0.36%)</title><rect x="90.1" y="165" width="4.2" height="15.0" fill="rgb(251,56,41)" rx="2" ry="2" />
<text  x="93.07" y="175.5" ></text>
</g>
<g >
<title>mmio_wc_spinlock (3 samples, 1.07%)</title><rect x="174.4" y="53" width="12.6" height="15.0" fill="rgb(244,193,42)" rx="2" ry="2" />
<text  x="177.36" y="63.5" ></text>
</g>
<g >
<title>munmap (1 samples, 0.36%)</title><rect x="368.2" y="245" width="4.2" height="15.0" fill="rgb(250,2,28)" rx="2" ry="2" />
<text  x="371.21" y="255.5" ></text>
</g>
<g >
<title>ofi_bufpool_get_ibuf (1 samples, 0.36%)</title><rect x="81.6" y="197" width="4.3" height="15.0" fill="rgb(253,85,20)" rx="2" ry="2" />
<text  x="84.64" y="207.5" ></text>
</g>
<g >
<title>std::thread::_Invoker&lt;std::tuple&lt;void (140 samples, 50.00%)</title><rect x="10.0" y="389" width="590.0" height="15.0" fill="rgb(209,188,21)" rx="2" ry="2" />
<text  x="13.00" y="399.5" >std::thread::_Invoker&lt;std::tuple&lt;void</text>
</g>
<g >
<title>rxr_cq_handle_tx_completion (4 samples, 1.43%)</title><rect x="52.1" y="149" width="16.9" height="15.0" fill="rgb(234,17,26)" rx="2" ry="2" />
<text  x="55.14" y="159.5" ></text>
</g>
<g >
<title>efa_post_send_validate_wr (1 samples, 0.36%)</title><rect x="165.9" y="53" width="4.2" height="15.0" fill="rgb(216,11,36)" rx="2" ry="2" />
<text  x="168.93" y="63.5" ></text>
</g>
<g >
<title>all (280 samples, 100%)</title><rect x="10.0" y="469" width="1180.0" height="15.0" fill="rgb(243,10,41)" rx="2" ry="2" />
<text  x="13.00" y="479.5" ></text>
</g>
<g >
<title>rxr_ep_get_peer (1 samples, 0.36%)</title><rect x="81.6" y="213" width="4.3" height="15.0" fill="rgb(220,183,39)" rx="2" ry="2" />
<text  x="84.64" y="223.5" ></text>
</g>
<g >
<title>ofi_bufpool_get_ibuf (1 samples, 0.36%)</title><rect x="94.3" y="181" width="4.2" height="15.0" fill="rgb(227,17,12)" rx="2" ry="2" />
<text  x="97.29" y="191.5" ></text>
</g>
<g >
<title>rxr_ep_progress (12 samples, 4.29%)</title><rect x="18.4" y="213" width="50.6" height="15.0" fill="rgb(239,89,6)" rx="2" ry="2" />
<text  x="21.43" y="223.5" >rxr_e..</text>
</g>
<g >
<title>fi_write (71 samples, 25.36%)</title><rect x="69.0" y="277" width="299.2" height="15.0" fill="rgb(233,61,41)" rx="2" ry="2" />
<text  x="72.00" y="287.5" >fi_write</text>
</g>
<g >
<title>rxr_tx_entry_init (1 samples, 0.36%)</title><rect x="90.1" y="197" width="4.2" height="15.0" fill="rgb(248,125,43)" rx="2" ry="2" />
<text  x="93.07" y="207.5" ></text>
</g>
<g >
<title>rxr_pkt_req_max_data_size (2 samples, 0.71%)</title><rect x="359.8" y="197" width="8.4" height="15.0" fill="rgb(214,211,49)" rx="2" ry="2" />
<text  x="362.79" y="207.5" ></text>
</g>
<g >
<title>ofi_bufpool_get_ibuf (1 samples, 0.36%)</title><rect x="64.8" y="117" width="4.2" height="15.0" fill="rgb(239,176,21)" rx="2" ry="2" />
<text  x="67.79" y="127.5" ></text>
</g>
<g >
<title>main (140 samples, 50.00%)</title><rect x="600.0" y="453" width="590.0" height="15.0" fill="rgb(245,49,23)" rx="2" ry="2" />
<text  x="603.00" y="463.5" >main</text>
</g>
<g >
<title>std::chrono::duration&lt;long, (1 samples, 0.36%)</title><rect x="389.3" y="309" width="4.2" height="15.0" fill="rgb(229,96,22)" rx="2" ry="2" />
<text  x="392.29" y="319.5" ></text>
</g>
<g >
<title>std::chrono::duration&lt;long, (1 samples, 0.36%)</title><rect x="591.6" y="277" width="4.2" height="15.0" fill="rgb(254,83,19)" rx="2" ry="2" />
<text  x="594.57" y="287.5" ></text>
</g>
<g >
<title>efa_post_send (10 samples, 3.57%)</title><rect x="144.9" y="69" width="42.1" height="15.0" fill="rgb(208,10,27)" rx="2" ry="2" />
<text  x="147.86" y="79.5" >efa..</text>
</g>
<g >
<title>ofi_total_iov_len (1 samples, 0.36%)</title><rect x="187.0" y="85" width="4.2" height="15.0" fill="rgb(222,166,52)" rx="2" ry="2" />
<text  x="190.00" y="95.5" ></text>
</g>
<g >
<title>rxr_pkt_init_rtw_data (31 samples, 11.07%)</title><rect x="229.1" y="133" width="130.7" height="15.0" fill="rgb(234,41,4)" rx="2" ry="2" />
<text  x="232.14" y="143.5" >rxr_pkt_init_rtw..</text>
</g>
<g >
<title>fi_cq_read (12 samples, 4.29%)</title><rect x="18.4" y="261" width="50.6" height="15.0" fill="rgb(229,73,16)" rx="2" ry="2" />
<text  x="21.43" y="271.5" >fi_cq..</text>
</g>
<g >
<title>?? (3 samples, 1.07%)</title><rect x="376.6" y="261" width="12.7" height="15.0" fill="rgb(235,66,51)" rx="2" ry="2" />
<text  x="379.64" y="271.5" ></text>
</g>
<g >
<title>rxr_pkt_handle_send_completion (5 samples, 1.79%)</title><rect x="47.9" y="165" width="21.1" height="15.0" fill="rgb(243,148,34)" rx="2" ry="2" />
<text  x="50.93" y="175.5" ></text>
</g>
<g >
<title>std::chrono::operator-&lt;long, (46 samples, 16.43%)</title><rect x="393.5" y="293" width="193.9" height="15.0" fill="rgb(205,100,28)" rx="2" ry="2" />
<text  x="396.50" y="303.5" >std::chrono::operator-&lt;lo..</text>
</g>
<g >
<title>memcpy (29 samples, 10.36%)</title><rect x="233.4" y="101" width="122.2" height="15.0" fill="rgb(215,113,21)" rx="2" ry="2" />
<text  x="236.36" y="111.5" >memcpy</text>
</g>
<g >
<title>std::thread::join (140 samples, 50.00%)</title><rect x="600.0" y="389" width="590.0" height="15.0" fill="rgb(228,6,36)" rx="2" ry="2" />
<text  x="603.00" y="399.5" >std::thread::join</text>
</g>
<g >
<title>pthread_spin_lock (2 samples, 0.71%)</title><rect x="73.2" y="213" width="8.4" height="15.0" fill="rgb(232,39,35)" rx="2" ry="2" />
<text  x="76.21" y="223.5" ></text>
</g>
<g >
<title>std::vector&lt;unsigned (1 samples, 0.36%)</title><rect x="595.8" y="309" width="4.2" height="15.0" fill="rgb(239,100,48)" rx="2" ry="2" />
<text  x="598.79" y="319.5" ></text>
</g>
<g >
<title>efa_post_send_validate (1 samples, 0.36%)</title><rect x="187.0" y="101" width="4.2" height="15.0" fill="rgb(210,60,9)" rx="2" ry="2" />
<text  x="190.00" y="111.5" ></text>
</g>
<g >
<title>rxr_pkt_init_eager_rtw (34 samples, 12.14%)</title><rect x="216.5" y="149" width="143.3" height="15.0" fill="rgb(232,120,49)" rx="2" ry="2" />
<text  x="219.50" y="159.5" >rxr_pkt_init_eager..</text>
</g>
<g >
<title>ofi_bufpool_get_ibuf (2 samples, 0.71%)</title><rect x="208.1" y="117" width="8.4" height="15.0" fill="rgb(227,131,36)" rx="2" ry="2" />
<text  x="211.07" y="127.5" ></text>
</g>
<g >
<title>std::chrono::operator&lt; (1 samples, 0.36%)</title><rect x="591.6" y="293" width="4.2" height="15.0" fill="rgb(224,166,47)" rx="2" ry="2" />
<text  x="594.57" y="303.5" ></text>
</g>
<g >
<title>rxr_rma_post_write (65 samples, 23.21%)</title><rect x="94.3" y="213" width="273.9" height="15.0" fill="rgb(232,209,30)" rx="2" ry="2" />
<text  x="97.29" y="223.5" >rxr_rma_post_write</text>
</g>
<g >
<title>efa_poll_sub_cqs (4 samples, 1.43%)</title><rect x="26.9" y="133" width="16.8" height="15.0" fill="rgb(230,169,32)" rx="2" ry="2" />
<text  x="29.86" y="143.5" ></text>
</g>
<g >
<title>dlist_insert_before (1 samples, 0.36%)</title><rect x="85.9" y="197" width="4.2" height="15.0" fill="rgb(245,49,24)" rx="2" ry="2" />
<text  x="88.86" y="207.5" ></text>
</g>
<g >
<title>rxr_ep_get_peer (3 samples, 1.07%)</title><rect x="216.5" y="117" width="12.6" height="15.0" fill="rgb(246,52,52)" rx="2" ry="2" />
<text  x="219.50" y="127.5" ></text>
</g>
<g >
<title>rxr_pkt_post_ctrl_once (62 samples, 22.14%)</title><rect x="98.5" y="181" width="261.3" height="15.0" fill="rgb(227,46,24)" rx="2" ry="2" />
<text  x="101.50" y="191.5" >rxr_pkt_post_ctrl_once</text>
</g>
<g >
<title>ofi_bufpool_get_ibuf (1 samples, 0.36%)</title><rect x="364.0" y="165" width="4.2" height="15.0" fill="rgb(206,6,37)" rx="2" ry="2" />
<text  x="367.00" y="175.5" ></text>
</g>
<g >
<title>rxr_ep_get_peer (1 samples, 0.36%)</title><rect x="94.3" y="197" width="4.2" height="15.0" fill="rgb(212,20,6)" rx="2" ry="2" />
<text  x="97.29" y="207.5" ></text>
</g>
<g >
<title>RmaServer::_batchWorker (140 samples, 50.00%)</title><rect x="10.0" y="325" width="590.0" height="15.0" fill="rgb(242,62,38)" rx="2" ry="2" />
<text  x="13.00" y="335.5" >RmaServer::_batchWorker</text>
</g>
<g >
<title>rxr_rma_writev (71 samples, 25.36%)</title><rect x="69.0" y="245" width="299.2" height="15.0" fill="rgb(233,42,36)" rx="2" ry="2" />
<text  x="72.00" y="255.5" >rxr_rma_writev</text>
</g>
<g >
<title>dlist_insert_after (1 samples, 0.36%)</title><rect x="85.9" y="181" width="4.2" height="15.0" fill="rgb(245,99,2)" rx="2" ry="2" />
<text  x="88.86" y="191.5" ></text>
</g>
<g >
<title>std::thread::_Invoker&lt;std::tuple&lt;void (140 samples, 50.00%)</title><rect x="10.0" y="373" width="590.0" height="15.0" fill="rgb(223,197,37)" rx="2" ry="2" />
<text  x="13.00" y="383.5" >std::thread::_Invoker&lt;std::tuple&lt;void</text>
</g>
<g >
<title>rxr_ep_progress_internal (12 samples, 4.29%)</title><rect x="18.4" y="197" width="50.6" height="15.0" fill="rgb(254,24,0)" rx="2" ry="2" />
<text  x="21.43" y="207.5" >rxr_e..</text>
</g>
<g >
<title>efa_post_flush (10 samples, 3.57%)</title><rect x="144.9" y="101" width="42.1" height="15.0" fill="rgb(212,52,17)" rx="2" ry="2" />
<text  x="147.86" y="111.5" >efa..</text>
</g>
<g >
<title>std::__invoke_impl&lt;void, (140 samples, 50.00%)</title><rect x="10.0" y="341" width="590.0" height="15.0" fill="rgb(254,133,27)" rx="2" ry="2" />
<text  x="13.00" y="351.5" >std::__invoke_impl&lt;void,</text>
</g>
<g >
<title>memset (1 samples, 0.36%)</title><rect x="90.1" y="181" width="4.2" height="15.0" fill="rgb(220,202,7)" rx="2" ry="2" />
<text  x="93.07" y="191.5" ></text>
</g>
<g >
<title>?? (4 samples, 1.43%)</title><rect x="372.4" y="277" width="16.9" height="15.0" fill="rgb(244,155,48)" rx="2" ry="2" />
<text  x="375.43" y="287.5" ></text>
</g>
<g >
<title>efa_sub_cq_get_current_index (1 samples, 0.36%)</title><rect x="35.3" y="85" width="4.2" height="15.0" fill="rgb(217,162,29)" rx="2" ry="2" />
<text  x="38.29" y="95.5" ></text>
</g>
<g >
<title>efa_process_cqe (1 samples, 0.36%)</title><rect x="39.5" y="101" width="4.2" height="15.0" fill="rgb(234,106,41)" rx="2" ry="2" />
<text  x="42.50" y="111.5" ></text>
</g>
<g >
<title>__pthread_join (140 samples, 50.00%)</title><rect x="600.0" y="357" width="590.0" height="15.0" fill="rgb(234,205,35)" rx="2" ry="2" />
<text  x="603.00" y="367.5" >__pthread_join</text>
</g>
<g >
<title>ofi_cq_progress (12 samples, 4.29%)</title><rect x="18.4" y="229" width="50.6" height="15.0" fill="rgb(225,73,6)" rx="2" ry="2" />
<text  x="21.43" y="239.5" >ofi_c..</text>
</g>
<g >
<title>ofi_copy_from_iov (29 samples, 10.36%)</title><rect x="233.4" y="117" width="122.2" height="15.0" fill="rgb(216,147,6)" rx="2" ry="2" />
<text  x="236.36" y="127.5" >ofi_copy_from_iov</text>
</g>
<g >
<title>rxr_rma_alloc_tx_entry (2 samples, 0.71%)</title><rect x="85.9" y="213" width="8.4" height="15.0" fill="rgb(225,70,53)" rx="2" ry="2" />
<text  x="88.86" y="223.5" ></text>
</g>
<g >
<title>rdm_ep_poll_ibv_cq (12 samples, 4.29%)</title><rect x="18.4" y="181" width="50.6" height="15.0" fill="rgb(241,89,52)" rx="2" ry="2" />
<text  x="21.43" y="191.5" >rdm_e..</text>
</g>
<g >
<title>libefa::Node::~Node (1 samples, 0.36%)</title><rect x="368.2" y="293" width="4.2" height="15.0" fill="rgb(253,222,11)" rx="2" ry="2" />
<text  x="371.21" y="303.5" ></text>
</g>
<g >
<title>rxr_ep_get_peer (5 samples, 1.79%)</title><rect x="195.4" y="133" width="21.1" height="15.0" fill="rgb(221,147,29)" rx="2" ry="2" />
<text  x="198.43" y="143.5" ></text>
</g>
<g >
<title>efa_poll_cq (7 samples, 2.50%)</title><rect x="18.4" y="149" width="29.5" height="15.0" fill="rgb(240,209,27)" rx="2" ry="2" />
<text  x="21.43" y="159.5" >ef..</text>
</g>
<g >
<title>ft_get_cq_comp (12 samples, 4.29%)</title><rect x="18.4" y="293" width="50.6" height="15.0" fill="rgb(209,216,34)" rx="2" ry="2" />
<text  x="21.43" y="303.5" >ft_ge..</text>
</g>
<g >
<title>pthread_spin_lock (3 samples, 1.07%)</title><rect x="174.4" y="37" width="12.6" height="15.0" fill="rgb(219,156,25)" rx="2" ry="2" />
<text  x="177.36" y="47.5" ></text>
</g>
<g >
<title>__memmove_avx_unaligned_erms (29 samples, 10.36%)</title><rect x="233.4" y="85" width="122.2" height="15.0" fill="rgb(225,222,39)" rx="2" ry="2" />
<text  x="236.36" y="95.5" >__memmove_avx_u..</text>
</g>
<g >
<title>ofi_bufpool_get_ibuf (2 samples, 0.71%)</title><rect x="220.7" y="101" width="8.4" height="15.0" fill="rgb(215,125,39)" rx="2" ry="2" />
<text  x="223.71" y="111.5" ></text>
</g>
<g >
<title>cq_next_sub_cqe_get (1 samples, 0.36%)</title><rect x="35.3" y="101" width="4.2" height="15.0" fill="rgb(253,219,22)" rx="2" ry="2" />
<text  x="38.29" y="111.5" ></text>
</g>
<g >
<title>std::thread::_State_impl&lt;std::thread::_Invoker&lt;std::tuple&lt;void (140 samples, 50.00%)</title><rect x="10.0" y="405" width="590.0" height="15.0" fill="rgb(207,175,38)" rx="2" ry="2" />
<text  x="13.00" y="415.5" >std::thread::_State_impl&lt;std::thread::_Invoker&lt;std::tuple&lt;void</text>
</g>
<g >
<title>libefa::Node::postRma (71 samples, 25.36%)</title><rect x="69.0" y="309" width="299.2" height="15.0" fill="rgb(236,14,39)" rx="2" ry="2" />
<text  x="72.00" y="319.5" >libefa::Node::postRma</text>
</g>
<g >
<title>start_thread (140 samples, 50.00%)</title><rect x="10.0" y="437" width="590.0" height="15.0" fill="rgb(232,228,42)" rx="2" ry="2" />
<text  x="13.00" y="447.5" >start_thread</text>
</g>
<g >
<title>rxr_pkt_req_hdr_size (1 samples, 0.36%)</title><rect x="355.6" y="117" width="4.2" height="15.0" fill="rgb(214,23,17)" rx="2" ry="2" />
<text  x="358.57" y="127.5" ></text>
</g>
<g >
<title>rxr_pkt_init_ctrl (34 samples, 12.14%)</title><rect x="216.5" y="165" width="143.3" height="15.0" fill="rgb(252,22,31)" rx="2" ry="2" />
<text  x="219.50" y="175.5" >rxr_pkt_init_ctrl</text>
</g>
<g >
<title>pthread_spin_lock (2 samples, 0.71%)</title><rect x="56.4" y="101" width="8.4" height="15.0" fill="rgb(220,138,21)" rx="2" ry="2" />
<text  x="59.36" y="111.5" ></text>
</g>
<g >
<title>ofi_cq_readfrom (12 samples, 4.29%)</title><rect x="18.4" y="245" width="50.6" height="15.0" fill="rgb(231,19,22)" rx="2" ry="2" />
<text  x="21.43" y="255.5" >ofi_c..</text>
</g>
<g >
<title>std::chrono::time_point&lt;std::chrono::_V2::steady_clock, (1 samples, 0.36%)</title><rect x="587.4" y="293" width="4.2" height="15.0" fill="rgb(237,58,20)" rx="2" ry="2" />
<text  x="590.36" y="303.5" ></text>
</g>
<g >
<title>rxr_pkt_post_ctrl (62 samples, 22.14%)</title><rect x="98.5" y="197" width="261.3" height="15.0" fill="rgb(231,127,11)" rx="2" ry="2" />
<text  x="101.50" y="207.5" >rxr_pkt_post_ctrl</text>
</g>
<g >
<title>BenchmarkNode::startNode (140 samples, 50.00%)</title><rect x="600.0" y="421" width="590.0" height="15.0" fill="rgb(246,220,4)" rx="2" ry="2" />
<text  x="603.00" y="431.5" >BenchmarkNode::startNode</text>
</g>
<g >
<title>__gthread_join (140 samples, 50.00%)</title><rect x="600.0" y="373" width="590.0" height="15.0" fill="rgb(251,97,30)" rx="2" ry="2" />
<text  x="603.00" y="383.5" >__gthread_join</text>
</g>
<g >
<title>rxr_pkt_init_req_hdr (3 samples, 1.07%)</title><rect x="216.5" y="133" width="12.6" height="15.0" fill="rgb(229,176,2)" rx="2" ry="2" />
<text  x="219.50" y="143.5" ></text>
</g>
<g >
<title>rxr_ep_get_peer (4 samples, 1.43%)</title><rect x="106.9" y="149" width="16.9" height="15.0" fill="rgb(249,198,49)" rx="2" ry="2" />
<text  x="109.93" y="159.5" ></text>
</g>
<g >
<title>pthread_spin_lock (1 samples, 0.36%)</title><rect x="43.7" y="133" width="4.2" height="15.0" fill="rgb(213,44,10)" rx="2" ry="2" />
<text  x="46.71" y="143.5" ></text>
</g>
<g >
<title>ibv_post_send (10 samples, 3.57%)</title><rect x="144.9" y="85" width="42.1" height="15.0" fill="rgb(228,117,31)" rx="2" ry="2" />
<text  x="147.86" y="95.5" >ibv..</text>
</g>
<g >
<title>efa_poll_sub_cq (2 samples, 0.71%)</title><rect x="35.3" y="117" width="8.4" height="15.0" fill="rgb(207,47,24)" rx="2" ry="2" />
<text  x="38.29" y="127.5" ></text>
</g>
<g >
<title>rxr_ep_get_peer (1 samples, 0.36%)</title><rect x="64.8" y="133" width="4.2" height="15.0" fill="rgb(247,23,28)" rx="2" ry="2" />
<text  x="67.79" y="143.5" ></text>
</g>
<g >
<title>ofi_bufpool_get_ibuf (2 samples, 0.71%)</title><rect x="136.4" y="85" width="8.5" height="15.0" fill="rgb(227,221,37)" rx="2" ry="2" />
<text  x="139.43" y="95.5" ></text>
</g>
<g >
<title>fi_sendmsg (16 samples, 5.71%)</title><rect x="128.0" y="133" width="67.4" height="15.0" fill="rgb(233,192,36)" rx="2" ry="2" />
<text  x="131.00" y="143.5" >fi_send..</text>
</g>
</g>
</svg>
