<?xml version="1.0" standalone="no"?>
<!DOCTYPE svg PUBLIC "-//W3C//DTD SVG 1.1//EN" "http://www.w3.org/Graphics/SVG/1.1/DTD/svg11.dtd">
<svg version="1.1" width="1200" height="470" onload="init(evt)" viewBox="0 0 1200 470" xmlns="http://www.w3.org/2000/svg" xmlns:xlink="http://www.w3.org/1999/xlink">
<!-- Flame graph stack visualization. See https://github.com/brendangregg/FlameGraph for latest version, and http://www.brendangregg.com/flamegraphs.html for examples. -->
<!-- NOTES:  -->
<defs>
	<linearGradient id="background" y1="0" y2="1" x1="0" x2="0" >
		<stop stop-color="#eeeeee" offset="5%" />
		<stop stop-color="#eeeeb0" offset="95%" />
	</linearGradient>
</defs>
<style type="text/css">
	text { font-family:Verdana; font-size:12px; fill:rgb(0,0,0); }
	#search, #ignorecase { opacity:0.1; cursor:pointer; }
	#search:hover, #search.show, #ignorecase:hover, #ignorecase.show { opacity:1; }
	#subtitle { text-anchor:middle; font-color:rgb(160,160,160); }
	#title { text-anchor:middle; font-size:17px}
	#unzoom { cursor:pointer; }
	#frames > *:hover { stroke:black; stroke-width:0.5; cursor:pointer; }
	.hide { display:none; }
	.parent { opacity:0.5; }
</style>
<script type="text/ecmascript">
<![CDATA[
	"use strict";
	var details, searchbtn, unzoombtn, matchedtxt, svg, searching, currentSearchTerm, ignorecase, ignorecaseBtn;
	function init(evt) {
		details = document.getElementById("details").firstChild;
		searchbtn = document.getElementById("search");
		ignorecaseBtn = document.getElementById("ignorecase");
		unzoombtn = document.getElementById("unzoom");
		matchedtxt = document.getElementById("matched");
		svg = document.getElementsByTagName("svg")[0];
		searching = 0;
		currentSearchTerm = null;

		// use GET parameters to restore a flamegraphs state.
		var params = get_params();
		if (params.x && params.y)
			zoom(find_group(document.querySelector('[x="' + params.x + '"][y="' + params.y + '"]')));
                if (params.s) search(params.s);
	}

	// event listeners
	window.addEventListener("click", function(e) {
		var target = find_group(e.target);
		if (target) {
			if (target.nodeName == "a") {
				if (e.ctrlKey === false) return;
				e.preventDefault();
			}
			if (target.classList.contains("parent")) unzoom();
			zoom(target);
			if (!document.querySelector('.parent')) {
				clearzoom();
				return;
			}

			// set parameters for zoom state
			var el = target.querySelector("rect");
			if (el && el.attributes && el.attributes.y && el.attributes._orig_x) {
				var params = get_params()
				params.x = el.attributes._orig_x.value;
				params.y = el.attributes.y.value;
				history.replaceState(null, null, parse_params(params));
			}
		}
		else if (e.target.id == "unzoom") clearzoom();
		else if (e.target.id == "search") search_prompt();
		else if (e.target.id == "ignorecase") toggle_ignorecase();
	}, false)

	// mouse-over for info
	// show
	window.addEventListener("mouseover", function(e) {
		var target = find_group(e.target);
		if (target) details.nodeValue = "Function: " + g_to_text(target);
	}, false)

	// clear
	window.addEventListener("mouseout", function(e) {
		var target = find_group(e.target);
		if (target) details.nodeValue = ' ';
	}, false)

	// ctrl-F for search
	// ctrl-I to toggle case-sensitive search
	window.addEventListener("keydown",function (e) {
		if (e.keyCode === 114 || (e.ctrlKey && e.keyCode === 70)) {
			e.preventDefault();
			search_prompt();
		}
		else if (e.ctrlKey && e.keyCode === 73) {
			e.preventDefault();
			toggle_ignorecase();
		}
	}, false)

	// functions
	function get_params() {
		var params = {};
		var paramsarr = window.location.search.substr(1).split('&');
		for (var i = 0; i < paramsarr.length; ++i) {
			var tmp = paramsarr[i].split("=");
			if (!tmp[0] || !tmp[1]) continue;
			params[tmp[0]]  = decodeURIComponent(tmp[1]);
		}
		return params;
	}
	function parse_params(params) {
		var uri = "?";
		for (var key in params) {
			uri += key + '=' + encodeURIComponent(params[key]) + '&';
		}
		if (uri.slice(-1) == "&")
			uri = uri.substring(0, uri.length - 1);
		if (uri == '?')
			uri = window.location.href.split('?')[0];
		return uri;
	}
	function find_child(node, selector) {
		var children = node.querySelectorAll(selector);
		if (children.length) return children[0];
	}
	function find_group(node) {
		var parent = node.parentElement;
		if (!parent) return;
		if (parent.id == "frames") return node;
		return find_group(parent);
	}
	function orig_save(e, attr, val) {
		if (e.attributes["_orig_" + attr] != undefined) return;
		if (e.attributes[attr] == undefined) return;
		if (val == undefined) val = e.attributes[attr].value;
		e.setAttribute("_orig_" + attr, val);
	}
	function orig_load(e, attr) {
		if (e.attributes["_orig_"+attr] == undefined) return;
		e.attributes[attr].value = e.attributes["_orig_" + attr].value;
		e.removeAttribute("_orig_"+attr);
	}
	function g_to_text(e) {
		var text = find_child(e, "title").firstChild.nodeValue;
		return (text)
	}
	function g_to_func(e) {
		var func = g_to_text(e);
		// if there's any manipulation we want to do to the function
		// name before it's searched, do it here before returning.
		return (func);
	}
	function update_text(e) {
		var r = find_child(e, "rect");
		var t = find_child(e, "text");
		var w = parseFloat(r.attributes.width.value) -3;
		var txt = find_child(e, "title").textContent.replace(/\([^(]*\)$/,"");
		t.attributes.x.value = parseFloat(r.attributes.x.value) + 3;

		// Smaller than this size won't fit anything
		if (w < 2 * 12 * 0.59) {
			t.textContent = "";
			return;
		}

		t.textContent = txt;
		// Fit in full text width
		if (/^ *$/.test(txt) || t.getSubStringLength(0, txt.length) < w)
			return;

		for (var x = txt.length - 2; x > 0; x--) {
			if (t.getSubStringLength(0, x + 2) <= w) {
				t.textContent = txt.substring(0, x) + "..";
				return;
			}
		}
		t.textContent = "";
	}

	// zoom
	function zoom_reset(e) {
		if (e.attributes != undefined) {
			orig_load(e, "x");
			orig_load(e, "width");
		}
		if (e.childNodes == undefined) return;
		for (var i = 0, c = e.childNodes; i < c.length; i++) {
			zoom_reset(c[i]);
		}
	}
	function zoom_child(e, x, ratio) {
		if (e.attributes != undefined) {
			if (e.attributes.x != undefined) {
				orig_save(e, "x");
				e.attributes.x.value = (parseFloat(e.attributes.x.value) - x - 10) * ratio + 10;
				if (e.tagName == "text")
					e.attributes.x.value = find_child(e.parentNode, "rect[x]").attributes.x.value + 3;
			}
			if (e.attributes.width != undefined) {
				orig_save(e, "width");
				e.attributes.width.value = parseFloat(e.attributes.width.value) * ratio;
			}
		}

		if (e.childNodes == undefined) return;
		for (var i = 0, c = e.childNodes; i < c.length; i++) {
			zoom_child(c[i], x - 10, ratio);
		}
	}
	function zoom_parent(e) {
		if (e.attributes) {
			if (e.attributes.x != undefined) {
				orig_save(e, "x");
				e.attributes.x.value = 10;
			}
			if (e.attributes.width != undefined) {
				orig_save(e, "width");
				e.attributes.width.value = parseInt(svg.width.baseVal.value) - (10 * 2);
			}
		}
		if (e.childNodes == undefined) return;
		for (var i = 0, c = e.childNodes; i < c.length; i++) {
			zoom_parent(c[i]);
		}
	}
	function zoom(node) {
		var attr = find_child(node, "rect").attributes;
		var width = parseFloat(attr.width.value);
		var xmin = parseFloat(attr.x.value);
		var xmax = parseFloat(xmin + width);
		var ymin = parseFloat(attr.y.value);
		var ratio = (svg.width.baseVal.value - 2 * 10) / width;

		// XXX: Workaround for JavaScript float issues (fix me)
		var fudge = 0.0001;

		unzoombtn.classList.remove("hide");

		var el = document.getElementById("frames").children;
		for (var i = 0; i < el.length; i++) {
			var e = el[i];
			var a = find_child(e, "rect").attributes;
			var ex = parseFloat(a.x.value);
			var ew = parseFloat(a.width.value);
			var upstack;
			// Is it an ancestor
			if (0 == 0) {
				upstack = parseFloat(a.y.value) > ymin;
			} else {
				upstack = parseFloat(a.y.value) < ymin;
			}
			if (upstack) {
				// Direct ancestor
				if (ex <= xmin && (ex+ew+fudge) >= xmax) {
					e.classList.add("parent");
					zoom_parent(e);
					update_text(e);
				}
				// not in current path
				else
					e.classList.add("hide");
			}
			// Children maybe
			else {
				// no common path
				if (ex < xmin || ex + fudge >= xmax) {
					e.classList.add("hide");
				}
				else {
					zoom_child(e, xmin, ratio);
					update_text(e);
				}
			}
		}
		search();
	}
	function unzoom() {
		unzoombtn.classList.add("hide");
		var el = document.getElementById("frames").children;
		for(var i = 0; i < el.length; i++) {
			el[i].classList.remove("parent");
			el[i].classList.remove("hide");
			zoom_reset(el[i]);
			update_text(el[i]);
		}
		search();
	}
	function clearzoom() {
		unzoom();

		// remove zoom state
		var params = get_params();
		if (params.x) delete params.x;
		if (params.y) delete params.y;
		history.replaceState(null, null, parse_params(params));
	}

	// search
	function toggle_ignorecase() {
		ignorecase = !ignorecase;
		if (ignorecase) {
			ignorecaseBtn.classList.add("show");
		} else {
			ignorecaseBtn.classList.remove("show");
		}
		reset_search();
		search();
	}
	function reset_search() {
		var el = document.querySelectorAll("#frames rect");
		for (var i = 0; i < el.length; i++) {
			orig_load(el[i], "fill")
		}
		var params = get_params();
		delete params.s;
		history.replaceState(null, null, parse_params(params));
	}
	function search_prompt() {
		if (!searching) {
			var term = prompt("Enter a search term (regexp " +
			    "allowed, eg: ^ext4_)"
			    + (ignorecase ? ", ignoring case" : "")
			    + "\nPress Ctrl-i to toggle case sensitivity", "");
			if (term != null) search(term);
		} else {
			reset_search();
			searching = 0;
			currentSearchTerm = null;
			searchbtn.classList.remove("show");
			searchbtn.firstChild.nodeValue = "Search"
			matchedtxt.classList.add("hide");
			matchedtxt.firstChild.nodeValue = ""
		}
	}
	function search(term) {
		if (term) currentSearchTerm = term;

		var re = new RegExp(currentSearchTerm, ignorecase ? 'i' : '');
		var el = document.getElementById("frames").children;
		var matches = new Object();
		var maxwidth = 0;
		for (var i = 0; i < el.length; i++) {
			var e = el[i];
			var func = g_to_func(e);
			var rect = find_child(e, "rect");
			if (func == null || rect == null)
				continue;

			// Save max width. Only works as we have a root frame
			var w = parseFloat(rect.attributes.width.value);
			if (w > maxwidth)
				maxwidth = w;

			if (func.match(re)) {
				// highlight
				var x = parseFloat(rect.attributes.x.value);
				orig_save(rect, "fill");
				rect.attributes.fill.value = "rgb(230,0,230)";

				// remember matches
				if (matches[x] == undefined) {
					matches[x] = w;
				} else {
					if (w > matches[x]) {
						// overwrite with parent
						matches[x] = w;
					}
				}
				searching = 1;
			}
		}
		if (!searching)
			return;
		var params = get_params();
		params.s = currentSearchTerm;
		history.replaceState(null, null, parse_params(params));

		searchbtn.classList.add("show");
		searchbtn.firstChild.nodeValue = "Reset Search";

		// calculate percent matched, excluding vertical overlap
		var count = 0;
		var lastx = -1;
		var lastw = 0;
		var keys = Array();
		for (k in matches) {
			if (matches.hasOwnProperty(k))
				keys.push(k);
		}
		// sort the matched frames by their x location
		// ascending, then width descending
		keys.sort(function(a, b){
			return a - b;
		});
		// Step through frames saving only the biggest bottom-up frames
		// thanks to the sort order. This relies on the tree property
		// where children are always smaller than their parents.
		var fudge = 0.0001;	// JavaScript floating point
		for (var k in keys) {
			var x = parseFloat(keys[k]);
			var w = matches[keys[k]];
			if (x >= lastx + lastw - fudge) {
				count += w;
				lastx = x;
				lastw = w;
			}
		}
		// display matched percent
		matchedtxt.classList.remove("hide");
		var pct = 100 * count / maxwidth;
		if (pct != 100) pct = pct.toFixed(1)
		matchedtxt.firstChild.nodeValue = "Matched: " + pct + "%";
	}
]]>
</script>
<rect x="0.0" y="0" width="1200.0" height="470.0" fill="url(#background)"  />
<text id="title" x="600.00" y="24" >Flame Graph</text>
<text id="details" x="10.00" y="453" > </text>
<text id="unzoom" x="10.00" y="24" class="hide">Reset Zoom</text>
<text id="search" x="1090.00" y="24" >Search</text>
<text id="ignorecase" x="1174.00" y="24" >ic</text>
<text id="matched" x="1090.00" y="453" > </text>
<g id="frames">
<g >
<title>rxr_pkt_handle_send_completion (6 samples, 2.56%)</title><rect x="363.0" y="117" width="30.2" height="15.0" fill="rgb(246,44,28)" rx="2" ry="2" />
<text  x="365.99" y="127.5" >rx..</text>
</g>
<g >
<title>std::thread::_Invoker&lt;std::tuple&lt;void (117 samples, 50.00%)</title><rect x="10.0" y="325" width="590.0" height="15.0" fill="rgb(231,207,26)" rx="2" ry="2" />
<text  x="13.00" y="335.5" >std::thread::_Invoker&lt;std::tuple&lt;void</text>
</g>
<g >
<title>std::chrono::operator&gt;&lt;long, (1 samples, 0.43%)</title><rect x="595.0" y="261" width="5.0" height="15.0" fill="rgb(216,209,46)" rx="2" ry="2" />
<text  x="597.96" y="271.5" ></text>
</g>
<g >
<title>?? (3 samples, 1.28%)</title><rect x="494.1" y="229" width="15.1" height="15.0" fill="rgb(247,118,3)" rx="2" ry="2" />
<text  x="497.10" y="239.5" ></text>
</g>
<g >
<title>ofi_bufpool_get_ibuf (1 samples, 0.43%)</title><rect x="423.5" y="149" width="5.0" height="15.0" fill="rgb(238,214,34)" rx="2" ry="2" />
<text  x="426.50" y="159.5" ></text>
</g>
<g >
<title>SendRecvServer::_batchWorker (117 samples, 50.00%)</title><rect x="10.0" y="277" width="590.0" height="15.0" fill="rgb(211,19,11)" rx="2" ry="2" />
<text  x="13.00" y="287.5" >SendRecvServer::_batchWorker</text>
</g>
<g >
<title>?? (3 samples, 1.28%)</title><rect x="494.1" y="213" width="15.1" height="15.0" fill="rgb(207,143,31)" rx="2" ry="2" />
<text  x="497.10" y="223.5" ></text>
</g>
<g >
<title>rxr_pkt_init_rtm (2 samples, 0.85%)</title><rect x="468.9" y="85" width="10.1" height="15.0" fill="rgb(227,125,36)" rx="2" ry="2" />
<text  x="471.89" y="95.5" ></text>
</g>
<g >
<title>BenchmarkNode::run (117 samples, 50.00%)</title><rect x="600.0" y="389" width="590.0" height="15.0" fill="rgb(230,9,27)" rx="2" ry="2" />
<text  x="603.00" y="399.5" >BenchmarkNode::run</text>
</g>
<g >
<title>rxr_pkt_req_data_from_tx (1 samples, 0.43%)</title><rect x="473.9" y="69" width="5.1" height="15.0" fill="rgb(231,54,34)" rx="2" ry="2" />
<text  x="476.93" y="79.5" ></text>
</g>
<g >
<title>efa_cqe_is_pending (6 samples, 2.56%)</title><rect x="282.3" y="37" width="30.3" height="15.0" fill="rgb(233,108,7)" rx="2" ry="2" />
<text  x="285.31" y="47.5" >ef..</text>
</g>
<g >
<title>SendRecvServer::batch (117 samples, 50.00%)</title><rect x="600.0" y="357" width="590.0" height="15.0" fill="rgb(218,220,17)" rx="2" ry="2" />
<text  x="603.00" y="367.5" >SendRecvServer::batch</text>
</g>
<g >
<title>rxr_ep_get_peer (1 samples, 0.43%)</title><rect x="423.5" y="165" width="5.0" height="15.0" fill="rgb(251,35,53)" rx="2" ry="2" />
<text  x="426.50" y="175.5" ></text>
</g>
<g >
<title>dlist_insert_after (1 samples, 0.43%)</title><rect x="413.4" y="133" width="5.1" height="15.0" fill="rgb(246,27,9)" rx="2" ry="2" />
<text  x="416.42" y="143.5" ></text>
</g>
<g >
<title>dlist_insert_before (1 samples, 0.43%)</title><rect x="413.4" y="149" width="5.1" height="15.0" fill="rgb(214,19,23)" rx="2" ry="2" />
<text  x="416.42" y="159.5" ></text>
</g>
<g >
<title>fi_sendmsg (3 samples, 1.28%)</title><rect x="438.6" y="85" width="15.2" height="15.0" fill="rgb(236,201,28)" rx="2" ry="2" />
<text  x="441.63" y="95.5" ></text>
</g>
<g >
<title>ibv_poll_cq (43 samples, 18.38%)</title><rect x="146.2" y="117" width="216.8" height="15.0" fill="rgb(218,95,12)" rx="2" ry="2" />
<text  x="149.15" y="127.5" >ibv_poll_cq</text>
</g>
<g >
<title>ft_spin_for_comp (76 samples, 32.48%)</title><rect x="10.0" y="229" width="383.2" height="15.0" fill="rgb(247,202,27)" rx="2" ry="2" />
<text  x="13.00" y="239.5" >ft_spin_for_comp</text>
</g>
<g >
<title>ft_host_free (1 samples, 0.43%)</title><rect x="484.0" y="213" width="5.1" height="15.0" fill="rgb(230,145,3)" rx="2" ry="2" />
<text  x="487.02" y="223.5" ></text>
</g>
<g >
<title>rxr_pkt_init_ctrl (2 samples, 0.85%)</title><rect x="468.9" y="117" width="10.1" height="15.0" fill="rgb(208,94,13)" rx="2" ry="2" />
<text  x="471.89" y="127.5" ></text>
</g>
<g >
<title>pthread_spin_lock (2 samples, 0.85%)</title><rect x="312.6" y="37" width="10.0" height="15.0" fill="rgb(212,101,18)" rx="2" ry="2" />
<text  x="315.56" y="47.5" ></text>
</g>
<g >
<title>efa_post_send_sgl (1 samples, 0.43%)</title><rect x="448.7" y="53" width="5.1" height="15.0" fill="rgb(254,88,47)" rx="2" ry="2" />
<text  x="451.72" y="63.5" ></text>
</g>
<g >
<title>efa_poll_sub_cqs (31 samples, 13.25%)</title><rect x="166.3" y="85" width="156.3" height="15.0" fill="rgb(240,77,5)" rx="2" ry="2" />
<text  x="169.32" y="95.5" >efa_poll_sub_cqs</text>
</g>
<g >
<title>rxr_ep_get_peer (2 samples, 0.85%)</title><rect x="428.5" y="117" width="10.1" height="15.0" fill="rgb(208,24,38)" rx="2" ry="2" />
<text  x="431.55" y="127.5" ></text>
</g>
<g >
<title>rxr_ep_get_peer (1 samples, 0.43%)</title><rect x="468.9" y="53" width="5.0" height="15.0" fill="rgb(216,48,6)" rx="2" ry="2" />
<text  x="471.89" y="63.5" ></text>
</g>
<g >
<title>std::chrono::_V2::steady_clock::now (4 samples, 1.71%)</title><rect x="489.1" y="261" width="20.1" height="15.0" fill="rgb(208,146,3)" rx="2" ry="2" />
<text  x="492.06" y="271.5" ></text>
</g>
<g >
<title>std::chrono::duration&lt;long, (1 samples, 0.43%)</title><rect x="595.0" y="213" width="5.0" height="15.0" fill="rgb(239,187,10)" rx="2" ry="2" />
<text  x="597.96" y="223.5" ></text>
</g>
<g >
<title>rxr_msg_post_cuda_rtm (10 samples, 4.27%)</title><rect x="428.5" y="165" width="50.5" height="15.0" fill="rgb(242,4,35)" rx="2" ry="2" />
<text  x="431.55" y="175.5" >rxr_m..</text>
</g>
<g >
<title>start_thread (117 samples, 50.00%)</title><rect x="10.0" y="389" width="590.0" height="15.0" fill="rgb(236,208,8)" rx="2" ry="2" />
<text  x="13.00" y="399.5" >start_thread</text>
</g>
<g >
<title>rxr_ep_get_peer (1 samples, 0.43%)</title><rect x="479.0" y="149" width="5.0" height="15.0" fill="rgb(228,82,24)" rx="2" ry="2" />
<text  x="481.97" y="159.5" ></text>
</g>
<g >
<title>rxr_ep_get_peer (3 samples, 1.28%)</title><rect x="453.8" y="85" width="15.1" height="15.0" fill="rgb(214,78,51)" rx="2" ry="2" />
<text  x="456.76" y="95.5" ></text>
</g>
<g >
<title>rxr_pkt_entry_sendmsg (6 samples, 2.56%)</title><rect x="438.6" y="101" width="30.3" height="15.0" fill="rgb(221,199,48)" rx="2" ry="2" />
<text  x="441.63" y="111.5" >rx..</text>
</g>
<g >
<title>fi_cq_read (76 samples, 32.48%)</title><rect x="10.0" y="213" width="383.2" height="15.0" fill="rgb(214,11,25)" rx="2" ry="2" />
<text  x="13.00" y="223.5" >fi_cq_read</text>
</g>
<g >
<title>ft_sendmsg (17 samples, 7.26%)</title><rect x="398.3" y="229" width="85.7" height="15.0" fill="rgb(251,228,3)" rx="2" ry="2" />
<text  x="401.29" y="239.5" >ft_sendmsg</text>
</g>
<g >
<title>std::__invoke_impl&lt;void, (117 samples, 50.00%)</title><rect x="10.0" y="293" width="590.0" height="15.0" fill="rgb(206,102,39)" rx="2" ry="2" />
<text  x="13.00" y="303.5" >std::__invoke_impl&lt;void,</text>
</g>
<g >
<title>rxr_msg_post_rtm (12 samples, 5.13%)</title><rect x="423.5" y="181" width="60.5" height="15.0" fill="rgb(252,180,53)" rx="2" ry="2" />
<text  x="426.50" y="191.5" >rxr_ms..</text>
</g>
<g >
<title>__gthread_join (117 samples, 50.00%)</title><rect x="600.0" y="325" width="590.0" height="15.0" fill="rgb(230,224,28)" rx="2" ry="2" />
<text  x="603.00" y="335.5" >__gthread_join</text>
</g>
<g >
<title>munmap (1 samples, 0.43%)</title><rect x="484.0" y="197" width="5.1" height="15.0" fill="rgb(238,113,11)" rx="2" ry="2" />
<text  x="487.02" y="207.5" ></text>
</g>
<g >
<title>ofi_bufpool_get_ibuf (2 samples, 0.85%)</title><rect x="458.8" y="69" width="10.1" height="15.0" fill="rgb(252,173,11)" rx="2" ry="2" />
<text  x="461.80" y="79.5" ></text>
</g>
<g >
<title>std::execute_native_thread_routine (117 samples, 50.00%)</title><rect x="10.0" y="373" width="590.0" height="15.0" fill="rgb(206,126,54)" rx="2" ry="2" />
<text  x="13.00" y="383.5" >std::execute_native_thread_routine</text>
</g>
<g >
<title>rxr_cq_handle_tx_completion (6 samples, 2.56%)</title><rect x="363.0" y="85" width="30.2" height="15.0" fill="rgb(228,156,49)" rx="2" ry="2" />
<text  x="365.99" y="95.5" >rx..</text>
</g>
<g >
<title>rxr_tx_entry_init (2 samples, 0.85%)</title><rect x="413.4" y="165" width="10.1" height="15.0" fill="rgb(245,61,36)" rx="2" ry="2" />
<text  x="416.42" y="175.5" ></text>
</g>
<g >
<title>rdm_ep_poll_ibv_cq (49 samples, 20.94%)</title><rect x="146.2" y="133" width="247.0" height="15.0" fill="rgb(251,196,14)" rx="2" ry="2" />
<text  x="149.15" y="143.5" >rdm_ep_poll_ibv_cq</text>
</g>
<g >
<title>libefa::Node::getNTxCompletion (76 samples, 32.48%)</title><rect x="10.0" y="261" width="383.2" height="15.0" fill="rgb(238,100,49)" rx="2" ry="2" />
<text  x="13.00" y="271.5" >libefa::Node::getNTxCompletion</text>
</g>
<g >
<title>libefa::Node::~Node (1 samples, 0.43%)</title><rect x="484.0" y="245" width="5.1" height="15.0" fill="rgb(223,193,3)" rx="2" ry="2" />
<text  x="487.02" y="255.5" ></text>
</g>
<g >
<title>pthread_spin_lock (1 samples, 0.43%)</title><rect x="403.3" y="181" width="5.1" height="15.0" fill="rgb(220,11,8)" rx="2" ry="2" />
<text  x="406.33" y="191.5" ></text>
</g>
<g >
<title>pthread_spin_lock (2 samples, 0.85%)</title><rect x="80.6" y="149" width="10.1" height="15.0" fill="rgb(213,215,3)" rx="2" ry="2" />
<text  x="83.60" y="159.5" ></text>
</g>
<g >
<title>fi_sendmsg (17 samples, 7.26%)</title><rect x="398.3" y="213" width="85.7" height="15.0" fill="rgb(225,117,2)" rx="2" ry="2" />
<text  x="401.29" y="223.5" >fi_sendmsg</text>
</g>
<g >
<title>rxr_ep_get_peer (1 samples, 0.43%)</title><rect x="388.2" y="69" width="5.0" height="15.0" fill="rgb(207,2,21)" rx="2" ry="2" />
<text  x="391.21" y="79.5" ></text>
</g>
<g >
<title>BenchmarkNode::startNode (117 samples, 50.00%)</title><rect x="600.0" y="373" width="590.0" height="15.0" fill="rgb(208,71,39)" rx="2" ry="2" />
<text  x="603.00" y="383.5" >BenchmarkNode::startNode</text>
</g>
<g >
<title>std::thread::_Invoker&lt;std::tuple&lt;void (117 samples, 50.00%)</title><rect x="10.0" y="341" width="590.0" height="15.0" fill="rgb(217,212,4)" rx="2" ry="2" />
<text  x="13.00" y="351.5" >std::thread::_Invoker&lt;std::tuple&lt;void</text>
</g>
<g >
<title>std::chrono::operator-&lt;long, (17 samples, 7.26%)</title><rect x="509.2" y="245" width="85.8" height="15.0" fill="rgb(219,83,2)" rx="2" ry="2" />
<text  x="512.23" y="255.5" >std::chron..</text>
</g>
<g >
<title>pthread_spin_lock (8 samples, 3.42%)</title><rect x="322.6" y="85" width="40.4" height="15.0" fill="rgb(218,54,40)" rx="2" ry="2" />
<text  x="325.65" y="95.5" >pth..</text>
</g>
<g >
<title>rxr_ep_progress (66 samples, 28.21%)</title><rect x="60.4" y="165" width="332.8" height="15.0" fill="rgb(224,110,1)" rx="2" ry="2" />
<text  x="63.43" y="175.5" >rxr_ep_progress</text>
</g>
<g >
<title>ofi_bufpool_get_ibuf (1 samples, 0.43%)</title><rect x="468.9" y="37" width="5.0" height="15.0" fill="rgb(227,147,2)" rx="2" ry="2" />
<text  x="471.89" y="47.5" ></text>
</g>
<g >
<title>ft_post_tx (17 samples, 7.26%)</title><rect x="398.3" y="245" width="85.7" height="15.0" fill="rgb(248,16,14)" rx="2" ry="2" />
<text  x="401.29" y="255.5" >ft_post_tx</text>
</g>
<g >
<title>cq_next_sub_cqe_get (6 samples, 2.56%)</title><rect x="282.3" y="53" width="30.3" height="15.0" fill="rgb(211,117,19)" rx="2" ry="2" />
<text  x="285.31" y="63.5" >cq..</text>
</g>
<g >
<title>rxr_ep_progress_internal (58 samples, 24.79%)</title><rect x="100.8" y="149" width="292.4" height="15.0" fill="rgb(208,98,24)" rx="2" ry="2" />
<text  x="103.77" y="159.5" >rxr_ep_progress_internal</text>
</g>
<g >
<title>ofi_bufpool_get_ibuf (1 samples, 0.43%)</title><rect x="388.2" y="53" width="5.0" height="15.0" fill="rgb(227,164,21)" rx="2" ry="2" />
<text  x="391.21" y="63.5" ></text>
</g>
<g >
<title>ofi_bufpool_get_ibuf (1 samples, 0.43%)</title><rect x="443.7" y="37" width="5.0" height="15.0" fill="rgb(240,22,7)" rx="2" ry="2" />
<text  x="446.68" y="47.5" ></text>
</g>
<g >
<title>std::thread::join (117 samples, 50.00%)</title><rect x="600.0" y="341" width="590.0" height="15.0" fill="rgb(208,11,52)" rx="2" ry="2" />
<text  x="603.00" y="351.5" >std::thread::join</text>
</g>
<g >
<title>efa_av_addr_to_conn (2 samples, 0.85%)</title><rect x="438.6" y="53" width="10.1" height="15.0" fill="rgb(216,229,16)" rx="2" ry="2" />
<text  x="441.63" y="63.5" ></text>
</g>
<g >
<title>all (234 samples, 100%)</title><rect x="10.0" y="421" width="1180.0" height="15.0" fill="rgb(243,229,13)" rx="2" ry="2" />
<text  x="13.00" y="431.5" ></text>
</g>
<g >
<title>pthread_spin_lock@plt (2 samples, 0.85%)</title><rect x="90.7" y="149" width="10.1" height="15.0" fill="rgb(211,104,54)" rx="2" ry="2" />
<text  x="93.68" y="159.5" ></text>
</g>
<g >
<title>pthread_spin_lock (3 samples, 1.28%)</title><rect x="373.1" y="37" width="15.1" height="15.0" fill="rgb(216,77,12)" rx="2" ry="2" />
<text  x="376.08" y="47.5" ></text>
</g>
<g >
<title>efa_post_send (3 samples, 1.28%)</title><rect x="438.6" y="69" width="15.2" height="15.0" fill="rgb(243,98,17)" rx="2" ry="2" />
<text  x="441.63" y="79.5" ></text>
</g>
<g >
<title>efa_poll_cq (43 samples, 18.38%)</title><rect x="146.2" y="101" width="216.8" height="15.0" fill="rgb(219,153,21)" rx="2" ry="2" />
<text  x="149.15" y="111.5" >efa_poll_cq</text>
</g>
<g >
<title>__GI___clock_gettime (3 samples, 1.28%)</title><rect x="494.1" y="245" width="15.1" height="15.0" fill="rgb(213,225,40)" rx="2" ry="2" />
<text  x="497.10" y="255.5" ></text>
</g>
<g >
<title>std::__invoke&lt;void (117 samples, 50.00%)</title><rect x="10.0" y="309" width="590.0" height="15.0" fill="rgb(230,143,53)" rx="2" ry="2" />
<text  x="13.00" y="319.5" >std::__invoke&lt;void</text>
</g>
<g >
<title>rxr_pkt_handle_eager_rtm_send_completion (6 samples, 2.56%)</title><rect x="363.0" y="101" width="30.2" height="15.0" fill="rgb(252,183,41)" rx="2" ry="2" />
<text  x="365.99" y="111.5" >rx..</text>
</g>
<g >
<title>ofi_cq_progress (70 samples, 29.91%)</title><rect x="40.3" y="181" width="352.9" height="15.0" fill="rgb(214,120,45)" rx="2" ry="2" />
<text  x="43.26" y="191.5" >ofi_cq_progress</text>
</g>
<g >
<title>rxr_cq_write_tx_completion (4 samples, 1.71%)</title><rect x="368.0" y="69" width="20.2" height="15.0" fill="rgb(251,8,46)" rx="2" ry="2" />
<text  x="371.03" y="79.5" ></text>
</g>
<g >
<title>rxr_pkt_req_max_data_size (1 samples, 0.43%)</title><rect x="479.0" y="165" width="5.0" height="15.0" fill="rgb(205,158,48)" rx="2" ry="2" />
<text  x="481.97" y="175.5" ></text>
</g>
<g >
<title>clone (117 samples, 50.00%)</title><rect x="10.0" y="405" width="590.0" height="15.0" fill="rgb(238,53,15)" rx="2" ry="2" />
<text  x="13.00" y="415.5" >clone</text>
</g>
<g >
<title>libefa::Node::postTx (18 samples, 7.69%)</title><rect x="393.2" y="261" width="90.8" height="15.0" fill="rgb(216,202,17)" rx="2" ry="2" />
<text  x="396.25" y="271.5" >libefa::No..</text>
</g>
<g >
<title>rxr_rm_tx_cq_check (4 samples, 1.71%)</title><rect x="368.0" y="53" width="20.2" height="15.0" fill="rgb(241,146,40)" rx="2" ry="2" />
<text  x="371.03" y="63.5" ></text>
</g>
<g >
<title>efa_wq_put_wrid_idx_unlocked (2 samples, 0.85%)</title><rect x="312.6" y="53" width="10.0" height="15.0" fill="rgb(208,151,48)" rx="2" ry="2" />
<text  x="315.56" y="63.5" ></text>
</g>
<g >
<title>ofi_cq_readfrom (76 samples, 32.48%)</title><rect x="10.0" y="197" width="383.2" height="15.0" fill="rgb(222,42,43)" rx="2" ry="2" />
<text  x="13.00" y="207.5" >ofi_cq_readfrom</text>
</g>
<g >
<title>rxr_ep_alloc_tx_entry (3 samples, 1.28%)</title><rect x="408.4" y="181" width="15.1" height="15.0" fill="rgb(219,169,52)" rx="2" ry="2" />
<text  x="411.38" y="191.5" ></text>
</g>
<g >
<title>ofi_bufpool_get_ibuf (1 samples, 0.43%)</title><rect x="479.0" y="133" width="5.0" height="15.0" fill="rgb(250,63,22)" rx="2" ry="2" />
<text  x="481.97" y="143.5" ></text>
</g>
<g >
<title>efa_poll_sub_cq (8 samples, 3.42%)</title><rect x="282.3" y="69" width="40.3" height="15.0" fill="rgb(247,12,39)" rx="2" ry="2" />
<text  x="285.31" y="79.5" >efa..</text>
</g>
<g >
<title>rxr_pkt_post_ctrl_once (10 samples, 4.27%)</title><rect x="428.5" y="133" width="50.5" height="15.0" fill="rgb(251,225,15)" rx="2" ry="2" />
<text  x="431.55" y="143.5" >rxr_p..</text>
</g>
<g >
<title>rxr_pkt_init_eager_msgrtm (2 samples, 0.85%)</title><rect x="468.9" y="101" width="10.1" height="15.0" fill="rgb(234,64,32)" rx="2" ry="2" />
<text  x="471.89" y="111.5" ></text>
</g>
<g >
<title>std::thread::_State_impl&lt;std::thread::_Invoker&lt;std::tuple&lt;void (117 samples, 50.00%)</title><rect x="10.0" y="357" width="590.0" height="15.0" fill="rgb(216,201,10)" rx="2" ry="2" />
<text  x="13.00" y="367.5" >std::thread::_State_impl&lt;std::thread::_Invoker&lt;std::tuple&lt;void</text>
</g>
<g >
<title>ofi_total_iov_len (1 samples, 0.43%)</title><rect x="418.5" y="149" width="5.0" height="15.0" fill="rgb(205,62,26)" rx="2" ry="2" />
<text  x="421.46" y="159.5" ></text>
</g>
<g >
<title>ft_get_cq_comp (76 samples, 32.48%)</title><rect x="10.0" y="245" width="383.2" height="15.0" fill="rgb(228,209,14)" rx="2" ry="2" />
<text  x="13.00" y="255.5" >ft_get_cq_comp</text>
</g>
<g >
<title>rxr_pkt_entry_send (6 samples, 2.56%)</title><rect x="438.6" y="117" width="30.3" height="15.0" fill="rgb(220,5,39)" rx="2" ry="2" />
<text  x="441.63" y="127.5" >rx..</text>
</g>
<g >
<title>__pthread_join (117 samples, 50.00%)</title><rect x="600.0" y="309" width="590.0" height="15.0" fill="rgb(205,168,48)" rx="2" ry="2" />
<text  x="603.00" y="319.5" >__pthread_join</text>
</g>
<g >
<title>libefa::Server::~Server (1 samples, 0.43%)</title><rect x="484.0" y="261" width="5.1" height="15.0" fill="rgb(252,128,24)" rx="2" ry="2" />
<text  x="487.02" y="271.5" ></text>
</g>
<g >
<title>std::chrono::duration&lt;long, (1 samples, 0.43%)</title><rect x="595.0" y="229" width="5.0" height="15.0" fill="rgb(249,81,7)" rx="2" ry="2" />
<text  x="597.96" y="239.5" ></text>
</g>
<g >
<title>rxr_pkt_post_ctrl (10 samples, 4.27%)</title><rect x="428.5" y="149" width="50.5" height="15.0" fill="rgb(229,46,36)" rx="2" ry="2" />
<text  x="431.55" y="159.5" >rxr_p..</text>
</g>
<g >
<title>main (117 samples, 50.00%)</title><rect x="600.0" y="405" width="590.0" height="15.0" fill="rgb(210,30,10)" rx="2" ry="2" />
<text  x="603.00" y="415.5" >main</text>
</g>
<g >
<title>ft_free_res (1 samples, 0.43%)</title><rect x="484.0" y="229" width="5.1" height="15.0" fill="rgb(234,51,12)" rx="2" ry="2" />
<text  x="487.02" y="239.5" ></text>
</g>
<g >
<title>std::chrono::operator&lt; (1 samples, 0.43%)</title><rect x="595.0" y="245" width="5.0" height="15.0" fill="rgb(223,16,47)" rx="2" ry="2" />
<text  x="597.96" y="255.5" ></text>
</g>
<g >
<title>ofi_bufpool_get_ibuf (1 samples, 0.43%)</title><rect x="433.6" y="101" width="5.0" height="15.0" fill="rgb(244,38,40)" rx="2" ry="2" />
<text  x="436.59" y="111.5" ></text>
</g>
<g >
<title>std::chrono::operator-&lt;std::chrono::_V2::steady_clock, (17 samples, 7.26%)</title><rect x="509.2" y="261" width="85.8" height="15.0" fill="rgb(231,42,19)" rx="2" ry="2" />
<text  x="512.23" y="271.5" >std::chron..</text>
</g>
<g >
<title>rxr_pkt_init_req_hdr (1 samples, 0.43%)</title><rect x="468.9" y="69" width="5.0" height="15.0" fill="rgb(228,38,17)" rx="2" ry="2" />
<text  x="471.89" y="79.5" ></text>
</g>
<g >
<title>rxr_msg_generic_send (17 samples, 7.26%)</title><rect x="398.3" y="197" width="85.7" height="15.0" fill="rgb(219,71,8)" rx="2" ry="2" />
<text  x="401.29" y="207.5" >rxr_msg_ge..</text>
</g>
</g>
</svg>
