<?xml version="1.0" standalone="no"?>
<!DOCTYPE svg PUBLIC "-//W3C//DTD SVG 1.1//EN" "http://www.w3.org/Graphics/SVG/1.1/DTD/svg11.dtd">
<svg version="1.1" width="1200" height="550" onload="init(evt)" viewBox="0 0 1200 550" xmlns="http://www.w3.org/2000/svg" xmlns:xlink="http://www.w3.org/1999/xlink">
<!-- Flame graph stack visualization. See https://github.com/brendangregg/FlameGraph for latest version, and http://www.brendangregg.com/flamegraphs.html for examples. -->
<!-- NOTES:  -->
<defs>
	<linearGradient id="background" y1="0" y2="1" x1="0" x2="0" >
		<stop stop-color="#eeeeee" offset="5%" />
		<stop stop-color="#eeeeb0" offset="95%" />
	</linearGradient>
</defs>
<style type="text/css">
	text { font-family:Verdana; font-size:12px; fill:rgb(0,0,0); }
	#search, #ignorecase { opacity:0.1; cursor:pointer; }
	#search:hover, #search.show, #ignorecase:hover, #ignorecase.show { opacity:1; }
	#subtitle { text-anchor:middle; font-color:rgb(160,160,160); }
	#title { text-anchor:middle; font-size:17px}
	#unzoom { cursor:pointer; }
	#frames > *:hover { stroke:black; stroke-width:0.5; cursor:pointer; }
	.hide { display:none; }
	.parent { opacity:0.5; }
</style>
<script type="text/ecmascript">
<![CDATA[
	"use strict";
	var details, searchbtn, unzoombtn, matchedtxt, svg, searching, currentSearchTerm, ignorecase, ignorecaseBtn;
	function init(evt) {
		details = document.getElementById("details").firstChild;
		searchbtn = document.getElementById("search");
		ignorecaseBtn = document.getElementById("ignorecase");
		unzoombtn = document.getElementById("unzoom");
		matchedtxt = document.getElementById("matched");
		svg = document.getElementsByTagName("svg")[0];
		searching = 0;
		currentSearchTerm = null;

		// use GET parameters to restore a flamegraphs state.
		var params = get_params();
		if (params.x && params.y)
			zoom(find_group(document.querySelector('[x="' + params.x + '"][y="' + params.y + '"]')));
                if (params.s) search(params.s);
	}

	// event listeners
	window.addEventListener("click", function(e) {
		var target = find_group(e.target);
		if (target) {
			if (target.nodeName == "a") {
				if (e.ctrlKey === false) return;
				e.preventDefault();
			}
			if (target.classList.contains("parent")) unzoom();
			zoom(target);
			if (!document.querySelector('.parent')) {
				clearzoom();
				return;
			}

			// set parameters for zoom state
			var el = target.querySelector("rect");
			if (el && el.attributes && el.attributes.y && el.attributes._orig_x) {
				var params = get_params()
				params.x = el.attributes._orig_x.value;
				params.y = el.attributes.y.value;
				history.replaceState(null, null, parse_params(params));
			}
		}
		else if (e.target.id == "unzoom") clearzoom();
		else if (e.target.id == "search") search_prompt();
		else if (e.target.id == "ignorecase") toggle_ignorecase();
	}, false)

	// mouse-over for info
	// show
	window.addEventListener("mouseover", function(e) {
		var target = find_group(e.target);
		if (target) details.nodeValue = "Function: " + g_to_text(target);
	}, false)

	// clear
	window.addEventListener("mouseout", function(e) {
		var target = find_group(e.target);
		if (target) details.nodeValue = ' ';
	}, false)

	// ctrl-F for search
	// ctrl-I to toggle case-sensitive search
	window.addEventListener("keydown",function (e) {
		if (e.keyCode === 114 || (e.ctrlKey && e.keyCode === 70)) {
			e.preventDefault();
			search_prompt();
		}
		else if (e.ctrlKey && e.keyCode === 73) {
			e.preventDefault();
			toggle_ignorecase();
		}
	}, false)

	// functions
	function get_params() {
		var params = {};
		var paramsarr = window.location.search.substr(1).split('&');
		for (var i = 0; i < paramsarr.length; ++i) {
			var tmp = paramsarr[i].split("=");
			if (!tmp[0] || !tmp[1]) continue;
			params[tmp[0]]  = decodeURIComponent(tmp[1]);
		}
		return params;
	}
	function parse_params(params) {
		var uri = "?";
		for (var key in params) {
			uri += key + '=' + encodeURIComponent(params[key]) + '&';
		}
		if (uri.slice(-1) == "&")
			uri = uri.substring(0, uri.length - 1);
		if (uri == '?')
			uri = window.location.href.split('?')[0];
		return uri;
	}
	function find_child(node, selector) {
		var children = node.querySelectorAll(selector);
		if (children.length) return children[0];
	}
	function find_group(node) {
		var parent = node.parentElement;
		if (!parent) return;
		if (parent.id == "frames") return node;
		return find_group(parent);
	}
	function orig_save(e, attr, val) {
		if (e.attributes["_orig_" + attr] != undefined) return;
		if (e.attributes[attr] == undefined) return;
		if (val == undefined) val = e.attributes[attr].value;
		e.setAttribute("_orig_" + attr, val);
	}
	function orig_load(e, attr) {
		if (e.attributes["_orig_"+attr] == undefined) return;
		e.attributes[attr].value = e.attributes["_orig_" + attr].value;
		e.removeAttribute("_orig_"+attr);
	}
	function g_to_text(e) {
		var text = find_child(e, "title").firstChild.nodeValue;
		return (text)
	}
	function g_to_func(e) {
		var func = g_to_text(e);
		// if there's any manipulation we want to do to the function
		// name before it's searched, do it here before returning.
		return (func);
	}
	function update_text(e) {
		var r = find_child(e, "rect");
		var t = find_child(e, "text");
		var w = parseFloat(r.attributes.width.value) -3;
		var txt = find_child(e, "title").textContent.replace(/\([^(]*\)$/,"");
		t.attributes.x.value = parseFloat(r.attributes.x.value) + 3;

		// Smaller than this size won't fit anything
		if (w < 2 * 12 * 0.59) {
			t.textContent = "";
			return;
		}

		t.textContent = txt;
		// Fit in full text width
		if (/^ *$/.test(txt) || t.getSubStringLength(0, txt.length) < w)
			return;

		for (var x = txt.length - 2; x > 0; x--) {
			if (t.getSubStringLength(0, x + 2) <= w) {
				t.textContent = txt.substring(0, x) + "..";
				return;
			}
		}
		t.textContent = "";
	}

	// zoom
	function zoom_reset(e) {
		if (e.attributes != undefined) {
			orig_load(e, "x");
			orig_load(e, "width");
		}
		if (e.childNodes == undefined) return;
		for (var i = 0, c = e.childNodes; i < c.length; i++) {
			zoom_reset(c[i]);
		}
	}
	function zoom_child(e, x, ratio) {
		if (e.attributes != undefined) {
			if (e.attributes.x != undefined) {
				orig_save(e, "x");
				e.attributes.x.value = (parseFloat(e.attributes.x.value) - x - 10) * ratio + 10;
				if (e.tagName == "text")
					e.attributes.x.value = find_child(e.parentNode, "rect[x]").attributes.x.value + 3;
			}
			if (e.attributes.width != undefined) {
				orig_save(e, "width");
				e.attributes.width.value = parseFloat(e.attributes.width.value) * ratio;
			}
		}

		if (e.childNodes == undefined) return;
		for (var i = 0, c = e.childNodes; i < c.length; i++) {
			zoom_child(c[i], x - 10, ratio);
		}
	}
	function zoom_parent(e) {
		if (e.attributes) {
			if (e.attributes.x != undefined) {
				orig_save(e, "x");
				e.attributes.x.value = 10;
			}
			if (e.attributes.width != undefined) {
				orig_save(e, "width");
				e.attributes.width.value = parseInt(svg.width.baseVal.value) - (10 * 2);
			}
		}
		if (e.childNodes == undefined) return;
		for (var i = 0, c = e.childNodes; i < c.length; i++) {
			zoom_parent(c[i]);
		}
	}
	function zoom(node) {
		var attr = find_child(node, "rect").attributes;
		var width = parseFloat(attr.width.value);
		var xmin = parseFloat(attr.x.value);
		var xmax = parseFloat(xmin + width);
		var ymin = parseFloat(attr.y.value);
		var ratio = (svg.width.baseVal.value - 2 * 10) / width;

		// XXX: Workaround for JavaScript float issues (fix me)
		var fudge = 0.0001;

		unzoombtn.classList.remove("hide");

		var el = document.getElementById("frames").children;
		for (var i = 0; i < el.length; i++) {
			var e = el[i];
			var a = find_child(e, "rect").attributes;
			var ex = parseFloat(a.x.value);
			var ew = parseFloat(a.width.value);
			var upstack;
			// Is it an ancestor
			if (0 == 0) {
				upstack = parseFloat(a.y.value) > ymin;
			} else {
				upstack = parseFloat(a.y.value) < ymin;
			}
			if (upstack) {
				// Direct ancestor
				if (ex <= xmin && (ex+ew+fudge) >= xmax) {
					e.classList.add("parent");
					zoom_parent(e);
					update_text(e);
				}
				// not in current path
				else
					e.classList.add("hide");
			}
			// Children maybe
			else {
				// no common path
				if (ex < xmin || ex + fudge >= xmax) {
					e.classList.add("hide");
				}
				else {
					zoom_child(e, xmin, ratio);
					update_text(e);
				}
			}
		}
		search();
	}
	function unzoom() {
		unzoombtn.classList.add("hide");
		var el = document.getElementById("frames").children;
		for(var i = 0; i < el.length; i++) {
			el[i].classList.remove("parent");
			el[i].classList.remove("hide");
			zoom_reset(el[i]);
			update_text(el[i]);
		}
		search();
	}
	function clearzoom() {
		unzoom();

		// remove zoom state
		var params = get_params();
		if (params.x) delete params.x;
		if (params.y) delete params.y;
		history.replaceState(null, null, parse_params(params));
	}

	// search
	function toggle_ignorecase() {
		ignorecase = !ignorecase;
		if (ignorecase) {
			ignorecaseBtn.classList.add("show");
		} else {
			ignorecaseBtn.classList.remove("show");
		}
		reset_search();
		search();
	}
	function reset_search() {
		var el = document.querySelectorAll("#frames rect");
		for (var i = 0; i < el.length; i++) {
			orig_load(el[i], "fill")
		}
		var params = get_params();
		delete params.s;
		history.replaceState(null, null, parse_params(params));
	}
	function search_prompt() {
		if (!searching) {
			var term = prompt("Enter a search term (regexp " +
			    "allowed, eg: ^ext4_)"
			    + (ignorecase ? ", ignoring case" : "")
			    + "\nPress Ctrl-i to toggle case sensitivity", "");
			if (term != null) search(term);
		} else {
			reset_search();
			searching = 0;
			currentSearchTerm = null;
			searchbtn.classList.remove("show");
			searchbtn.firstChild.nodeValue = "Search"
			matchedtxt.classList.add("hide");
			matchedtxt.firstChild.nodeValue = ""
		}
	}
	function search(term) {
		if (term) currentSearchTerm = term;

		var re = new RegExp(currentSearchTerm, ignorecase ? 'i' : '');
		var el = document.getElementById("frames").children;
		var matches = new Object();
		var maxwidth = 0;
		for (var i = 0; i < el.length; i++) {
			var e = el[i];
			var func = g_to_func(e);
			var rect = find_child(e, "rect");
			if (func == null || rect == null)
				continue;

			// Save max width. Only works as we have a root frame
			var w = parseFloat(rect.attributes.width.value);
			if (w > maxwidth)
				maxwidth = w;

			if (func.match(re)) {
				// highlight
				var x = parseFloat(rect.attributes.x.value);
				orig_save(rect, "fill");
				rect.attributes.fill.value = "rgb(230,0,230)";

				// remember matches
				if (matches[x] == undefined) {
					matches[x] = w;
				} else {
					if (w > matches[x]) {
						// overwrite with parent
						matches[x] = w;
					}
				}
				searching = 1;
			}
		}
		if (!searching)
			return;
		var params = get_params();
		params.s = currentSearchTerm;
		history.replaceState(null, null, parse_params(params));

		searchbtn.classList.add("show");
		searchbtn.firstChild.nodeValue = "Reset Search";

		// calculate percent matched, excluding vertical overlap
		var count = 0;
		var lastx = -1;
		var lastw = 0;
		var keys = Array();
		for (k in matches) {
			if (matches.hasOwnProperty(k))
				keys.push(k);
		}
		// sort the matched frames by their x location
		// ascending, then width descending
		keys.sort(function(a, b){
			return a - b;
		});
		// Step through frames saving only the biggest bottom-up frames
		// thanks to the sort order. This relies on the tree property
		// where children are always smaller than their parents.
		var fudge = 0.0001;	// JavaScript floating point
		for (var k in keys) {
			var x = parseFloat(keys[k]);
			var w = matches[keys[k]];
			if (x >= lastx + lastw - fudge) {
				count += w;
				lastx = x;
				lastw = w;
			}
		}
		// display matched percent
		matchedtxt.classList.remove("hide");
		var pct = 100 * count / maxwidth;
		if (pct != 100) pct = pct.toFixed(1)
		matchedtxt.firstChild.nodeValue = "Matched: " + pct + "%";
	}
]]>
</script>
<rect x="0.0" y="0" width="1200.0" height="550.0" fill="url(#background)"  />
<text id="title" x="600.00" y="24" >Flame Graph</text>
<text id="details" x="10.00" y="533" > </text>
<text id="unzoom" x="10.00" y="24" class="hide">Reset Zoom</text>
<text id="search" x="1090.00" y="24" >Search</text>
<text id="ignorecase" x="1174.00" y="24" >ic</text>
<text id="matched" x="1090.00" y="533" > </text>
<g id="frames">
<g >
<title>libefa::Node::sync (1 samples, 1.16%)</title><rect x="545.1" y="341" width="13.7" height="15.0" fill="rgb(236,138,5)" rx="2" ry="2" />
<text  x="548.12" y="351.5" ></text>
</g>
<g >
<title>rdm_ep_poll_ibv_cq (5 samples, 5.81%)</title><rect x="37.4" y="213" width="68.6" height="15.0" fill="rgb(226,104,31)" rx="2" ry="2" />
<text  x="40.44" y="223.5" >rdm_ep_..</text>
</g>
<g >
<title>ft_force_progress (1 samples, 1.16%)</title><rect x="545.1" y="293" width="13.7" height="15.0" fill="rgb(240,86,21)" rx="2" ry="2" />
<text  x="548.12" y="303.5" ></text>
</g>
<g >
<title>efa_poll_sub_cq (1 samples, 1.16%)</title><rect x="51.2" y="149" width="13.7" height="15.0" fill="rgb(243,188,25)" rx="2" ry="2" />
<text  x="54.16" y="159.5" ></text>
</g>
<g >
<title>ft_alloc_msgs (21 samples, 24.42%)</title><rect x="147.2" y="277" width="288.1" height="15.0" fill="rgb(224,95,32)" rx="2" ry="2" />
<text  x="150.21" y="287.5" >ft_alloc_msgs</text>
</g>
<g >
<title>ft_alloc_ep_res (21 samples, 24.42%)</title><rect x="147.2" y="293" width="288.1" height="15.0" fill="rgb(218,223,51)" rx="2" ry="2" />
<text  x="150.21" y="303.5" >ft_alloc_ep_res</text>
</g>
<g >
<title>main (43 samples, 50.00%)</title><rect x="600.0" y="485" width="590.0" height="15.0" fill="rgb(253,130,53)" rx="2" ry="2" />
<text  x="603.00" y="495.5" >main</text>
</g>
<g >
<title>std::__invoke&lt;void (43 samples, 50.00%)</title><rect x="10.0" y="389" width="590.0" height="15.0" fill="rgb(219,35,49)" rx="2" ry="2" />
<text  x="13.00" y="399.5" >std::__invoke&lt;void</text>
</g>
<g >
<title>rxr_pkt_post_ctrl (1 samples, 1.16%)</title><rect x="531.4" y="229" width="13.7" height="15.0" fill="rgb(221,225,27)" rx="2" ry="2" />
<text  x="534.40" y="239.5" ></text>
</g>
<g >
<title>efa_mr_reg_impl (1 samples, 1.16%)</title><rect x="421.6" y="181" width="13.7" height="15.0" fill="rgb(251,10,32)" rx="2" ry="2" />
<text  x="424.63" y="191.5" ></text>
</g>
<g >
<title>libefa::Server::~Server (1 samples, 1.16%)</title><rect x="558.8" y="341" width="13.8" height="15.0" fill="rgb(242,63,9)" rx="2" ry="2" />
<text  x="561.84" y="351.5" ></text>
</g>
<g >
<title>std::chrono::operator-&lt;std::chrono::_V2::steady_clock, (1 samples, 1.16%)</title><rect x="586.3" y="341" width="13.7" height="15.0" fill="rgb(236,141,24)" rx="2" ry="2" />
<text  x="589.28" y="351.5" ></text>
</g>
<g >
<title>__pthread_join (43 samples, 50.00%)</title><rect x="600.0" y="389" width="590.0" height="15.0" fill="rgb(206,125,12)" rx="2" ry="2" />
<text  x="603.00" y="399.5" >__pthread_join</text>
</g>
<g >
<title>fi_cq_read (10 samples, 11.63%)</title><rect x="10.0" y="293" width="137.2" height="15.0" fill="rgb(234,168,35)" rx="2" ry="2" />
<text  x="13.00" y="303.5" >fi_cq_read</text>
</g>
<g >
<title>rxr_pkt_handle_send_completion (1 samples, 1.16%)</title><rect x="92.3" y="197" width="13.7" height="15.0" fill="rgb(245,31,14)" rx="2" ry="2" />
<text  x="95.33" y="207.5" ></text>
</g>
<g >
<title>ft_reg_mr (1 samples, 1.16%)</title><rect x="421.6" y="261" width="13.7" height="15.0" fill="rgb(251,111,47)" rx="2" ry="2" />
<text  x="424.63" y="271.5" ></text>
</g>
<g >
<title>rxr_msg_generic_send (1 samples, 1.16%)</title><rect x="531.4" y="277" width="13.7" height="15.0" fill="rgb(253,180,8)" rx="2" ry="2" />
<text  x="534.40" y="287.5" ></text>
</g>
<g >
<title>ofi_cq_readfrom (1 samples, 1.16%)</title><rect x="545.1" y="261" width="13.7" height="15.0" fill="rgb(218,142,54)" rx="2" ry="2" />
<text  x="548.12" y="271.5" ></text>
</g>
<g >
<title>ofi_buf_alloc_ex (1 samples, 1.16%)</title><rect x="531.4" y="181" width="13.7" height="15.0" fill="rgb(210,114,37)" rx="2" ry="2" />
<text  x="534.40" y="191.5" ></text>
</g>
<g >
<title>rxr_ep_progress_post_prov_buf (1 samples, 1.16%)</title><rect x="545.1" y="197" width="13.7" height="15.0" fill="rgb(226,108,45)" rx="2" ry="2" />
<text  x="548.12" y="207.5" ></text>
</g>
<g >
<title>BenchmarkNode::run (43 samples, 50.00%)</title><rect x="600.0" y="469" width="590.0" height="15.0" fill="rgb(252,48,40)" rx="2" ry="2" />
<text  x="603.00" y="479.5" >BenchmarkNode::run</text>
</g>
<g >
<title>ft_init_fabric (28 samples, 32.56%)</title><rect x="147.2" y="325" width="384.2" height="15.0" fill="rgb(217,71,30)" rx="2" ry="2" />
<text  x="150.21" y="335.5" >ft_init_fabric</text>
</g>
<g >
<title>std::chrono::duration&lt;long, (1 samples, 1.16%)</title><rect x="572.6" y="341" width="13.7" height="15.0" fill="rgb(236,149,4)" rx="2" ry="2" />
<text  x="575.56" y="351.5" ></text>
</g>
<g >
<title>ft_host_memset (20 samples, 23.26%)</title><rect x="147.2" y="261" width="274.4" height="15.0" fill="rgb(240,52,19)" rx="2" ry="2" />
<text  x="150.21" y="271.5" >ft_host_memset</text>
</g>
<g >
<title>__ibv_reg_mr_1_1 (1 samples, 1.16%)</title><rect x="421.6" y="149" width="13.7" height="15.0" fill="rgb(228,193,8)" rx="2" ry="2" />
<text  x="424.63" y="159.5" ></text>
</g>
<g >
<title>__gthread_join (43 samples, 50.00%)</title><rect x="600.0" y="405" width="590.0" height="15.0" fill="rgb(214,117,34)" rx="2" ry="2" />
<text  x="603.00" y="415.5" >__gthread_join</text>
</g>
<g >
<title>ft_init_oob (7 samples, 8.14%)</title><rect x="435.3" y="309" width="96.1" height="15.0" fill="rgb(209,175,24)" rx="2" ry="2" />
<text  x="438.35" y="319.5" >ft_init_oob</text>
</g>
<g >
<title>ofi_cq_readfrom (10 samples, 11.63%)</title><rect x="10.0" y="277" width="137.2" height="15.0" fill="rgb(220,122,34)" rx="2" ry="2" />
<text  x="13.00" y="287.5" >ofi_cq_readfrom</text>
</g>
<g >
<title>rxr_ep_grow_rx_pkt_pools (1 samples, 1.16%)</title><rect x="545.1" y="181" width="13.7" height="15.0" fill="rgb(230,33,10)" rx="2" ry="2" />
<text  x="548.12" y="191.5" ></text>
</g>
<g >
<title>pthread_spin_lock (1 samples, 1.16%)</title><rect x="23.7" y="229" width="13.7" height="15.0" fill="rgb(247,210,8)" rx="2" ry="2" />
<text  x="26.72" y="239.5" ></text>
</g>
<g >
<title>efa_reg_mr (1 samples, 1.16%)</title><rect x="421.6" y="117" width="13.7" height="15.0" fill="rgb(212,112,43)" rx="2" ry="2" />
<text  x="424.63" y="127.5" ></text>
</g>
<g >
<title>std::__invoke_impl&lt;void, (43 samples, 50.00%)</title><rect x="10.0" y="373" width="590.0" height="15.0" fill="rgb(206,133,42)" rx="2" ry="2" />
<text  x="13.00" y="383.5" >std::__invoke_impl&lt;void,</text>
</g>
<g >
<title>__memset_avx2_erms (20 samples, 23.26%)</title><rect x="147.2" y="245" width="274.4" height="15.0" fill="rgb(212,128,32)" rx="2" ry="2" />
<text  x="150.21" y="255.5" >__memset_avx2_erms</text>
</g>
<g >
<title>std::execute_native_thread_routine (43 samples, 50.00%)</title><rect x="10.0" y="453" width="590.0" height="15.0" fill="rgb(219,229,49)" rx="2" ry="2" />
<text  x="13.00" y="463.5" >std::execute_native_thread_routine</text>
</g>
<g >
<title>std::thread::join (43 samples, 50.00%)</title><rect x="600.0" y="421" width="590.0" height="15.0" fill="rgb(243,175,1)" rx="2" ry="2" />
<text  x="603.00" y="431.5" >std::thread::join</text>
</g>
<g >
<title>BenchmarkNode::startNode (43 samples, 50.00%)</title><rect x="600.0" y="453" width="590.0" height="15.0" fill="rgb(245,4,42)" rx="2" ry="2" />
<text  x="603.00" y="463.5" >BenchmarkNode::startNode</text>
</g>
<g >
<title>std::thread::_State_impl&lt;std::thread::_Invoker&lt;std::tuple&lt;void (43 samples, 50.00%)</title><rect x="10.0" y="437" width="590.0" height="15.0" fill="rgb(232,158,9)" rx="2" ry="2" />
<text  x="13.00" y="447.5" >std::thread::_State_impl&lt;std::thread::_Invoker&lt;std::tuple&lt;void</text>
</g>
<g >
<title>rxr_pkt_entry_alloc (1 samples, 1.16%)</title><rect x="531.4" y="197" width="13.7" height="15.0" fill="rgb(244,44,4)" rx="2" ry="2" />
<text  x="534.40" y="207.5" ></text>
</g>
<g >
<title>ft_sendmsg (1 samples, 1.16%)</title><rect x="531.4" y="309" width="13.7" height="15.0" fill="rgb(244,144,7)" rx="2" ry="2" />
<text  x="534.40" y="319.5" ></text>
</g>
<g >
<title>memset (1 samples, 1.16%)</title><rect x="545.1" y="149" width="13.7" height="15.0" fill="rgb(250,94,0)" rx="2" ry="2" />
<text  x="548.12" y="159.5" ></text>
</g>
<g >
<title>ft_alloc_active_res (21 samples, 24.42%)</title><rect x="147.2" y="309" width="288.1" height="15.0" fill="rgb(223,45,17)" rx="2" ry="2" />
<text  x="150.21" y="319.5" >ft_alloc_active_res</text>
</g>
<g >
<title>libefa::Node::init (28 samples, 32.56%)</title><rect x="147.2" y="341" width="384.2" height="15.0" fill="rgb(244,186,4)" rx="2" ry="2" />
<text  x="150.21" y="351.5" >libefa::Node::init</text>
</g>
<g >
<title>ibv_reg_mr_iova2 (1 samples, 1.16%)</title><rect x="421.6" y="133" width="13.7" height="15.0" fill="rgb(208,211,3)" rx="2" ry="2" />
<text  x="424.63" y="143.5" ></text>
</g>
<g >
<title>std::thread::_Invoker&lt;std::tuple&lt;void (43 samples, 50.00%)</title><rect x="10.0" y="405" width="590.0" height="15.0" fill="rgb(238,111,30)" rx="2" ry="2" />
<text  x="13.00" y="415.5" >std::thread::_Invoker&lt;std::tuple&lt;void</text>
</g>
<g >
<title>ft_host_free (1 samples, 1.16%)</title><rect x="558.8" y="293" width="13.8" height="15.0" fill="rgb(240,30,50)" rx="2" ry="2" />
<text  x="561.84" y="303.5" ></text>
</g>
<g >
<title>libefa::Node::postTx (1 samples, 1.16%)</title><rect x="531.4" y="341" width="13.7" height="15.0" fill="rgb(235,91,40)" rx="2" ry="2" />
<text  x="534.40" y="351.5" ></text>
</g>
<g >
<title>efa_poll_cq (4 samples, 4.65%)</title><rect x="37.4" y="181" width="54.9" height="15.0" fill="rgb(238,119,36)" rx="2" ry="2" />
<text  x="40.44" y="191.5" >efa_p..</text>
</g>
<g >
<title>_execute_cmd_write (1 samples, 1.16%)</title><rect x="421.6" y="85" width="13.7" height="15.0" fill="rgb(254,190,4)" rx="2" ry="2" />
<text  x="424.63" y="95.5" ></text>
</g>
<g >
<title>std::thread::_Invoker&lt;std::tuple&lt;void (43 samples, 50.00%)</title><rect x="10.0" y="421" width="590.0" height="15.0" fill="rgb(232,185,23)" rx="2" ry="2" />
<text  x="13.00" y="431.5" >std::thread::_Invoker&lt;std::tuple&lt;void</text>
</g>
<g >
<title>ofi_bufpool_grow (1 samples, 1.16%)</title><rect x="531.4" y="149" width="13.7" height="15.0" fill="rgb(221,51,37)" rx="2" ry="2" />
<text  x="534.40" y="159.5" ></text>
</g>
<g >
<title>execute_ioctl (1 samples, 1.16%)</title><rect x="421.6" y="53" width="13.7" height="15.0" fill="rgb(234,211,48)" rx="2" ry="2" />
<text  x="424.63" y="63.5" ></text>
</g>
<g >
<title>ofi_buf_alloc (1 samples, 1.16%)</title><rect x="531.4" y="165" width="13.7" height="15.0" fill="rgb(208,26,13)" rx="2" ry="2" />
<text  x="534.40" y="175.5" ></text>
</g>
<g >
<title>all (86 samples, 100%)</title><rect x="10.0" y="501" width="1180.0" height="15.0" fill="rgb(233,81,31)" rx="2" ry="2" />
<text  x="13.00" y="511.5" ></text>
</g>
<g >
<title>__memset_avx2_erms (1 samples, 1.16%)</title><rect x="545.1" y="133" width="13.7" height="15.0" fill="rgb(212,38,9)" rx="2" ry="2" />
<text  x="548.12" y="143.5" ></text>
</g>
<g >
<title>ofi_cq_progress (10 samples, 11.63%)</title><rect x="10.0" y="261" width="137.2" height="15.0" fill="rgb(251,148,30)" rx="2" ry="2" />
<text  x="13.00" y="271.5" >ofi_cq_progress</text>
</g>
<g >
<title>ft_get_cq_comp (10 samples, 11.63%)</title><rect x="10.0" y="325" width="137.2" height="15.0" fill="rgb(220,134,12)" rx="2" ry="2" />
<text  x="13.00" y="335.5" >ft_get_cq_comp</text>
</g>
<g >
<title>__memset_avx2_erms (1 samples, 1.16%)</title><rect x="531.4" y="117" width="13.7" height="15.0" fill="rgb(234,110,33)" rx="2" ry="2" />
<text  x="534.40" y="127.5" ></text>
</g>
<g >
<title>rxr_ep_record_tx_op_completed (1 samples, 1.16%)</title><rect x="92.3" y="181" width="13.7" height="15.0" fill="rgb(221,81,41)" rx="2" ry="2" />
<text  x="95.33" y="191.5" ></text>
</g>
<g >
<title>fi_cq_readfrom (3 samples, 3.49%)</title><rect x="106.0" y="197" width="41.2" height="15.0" fill="rgb(238,46,12)" rx="2" ry="2" />
<text  x="109.05" y="207.5" >fi_..</text>
</g>
<g >
<title>std::chrono::operator-&lt;long, (1 samples, 1.16%)</title><rect x="586.3" y="325" width="13.7" height="15.0" fill="rgb(220,134,6)" rx="2" ry="2" />
<text  x="589.28" y="335.5" ></text>
</g>
<g >
<title>ioctl (1 samples, 1.16%)</title><rect x="421.6" y="37" width="13.7" height="15.0" fill="rgb(235,71,32)" rx="2" ry="2" />
<text  x="424.63" y="47.5" ></text>
</g>
<g >
<title>ofi_cq_readfrom (3 samples, 3.49%)</title><rect x="106.0" y="181" width="41.2" height="15.0" fill="rgb(208,109,42)" rx="2" ry="2" />
<text  x="109.05" y="191.5" >ofi..</text>
</g>
<g >
<title>ft_spin_for_comp (10 samples, 11.63%)</title><rect x="10.0" y="309" width="137.2" height="15.0" fill="rgb(239,89,7)" rx="2" ry="2" />
<text  x="13.00" y="319.5" >ft_spin_for_comp</text>
</g>
<g >
<title>memset (1 samples, 1.16%)</title><rect x="531.4" y="133" width="13.7" height="15.0" fill="rgb(251,82,30)" rx="2" ry="2" />
<text  x="534.40" y="143.5" ></text>
</g>
<g >
<title>SendRecvServer::_batchWorker (43 samples, 50.00%)</title><rect x="10.0" y="357" width="590.0" height="15.0" fill="rgb(246,83,13)" rx="2" ry="2" />
<text  x="13.00" y="367.5" >SendRecvServer::_batchWorker</text>
</g>
<g >
<title>ft_sock_recv (1 samples, 1.16%)</title><rect x="545.1" y="309" width="13.7" height="15.0" fill="rgb(253,127,47)" rx="2" ry="2" />
<text  x="548.12" y="319.5" ></text>
</g>
<g >
<title>__ibv_reg_mr (1 samples, 1.16%)</title><rect x="421.6" y="165" width="13.7" height="15.0" fill="rgb(252,11,36)" rx="2" ry="2" />
<text  x="424.63" y="175.5" ></text>
</g>
<g >
<title>fi_mr_regattr (1 samples, 1.16%)</title><rect x="421.6" y="213" width="13.7" height="15.0" fill="rgb(245,22,1)" rx="2" ry="2" />
<text  x="424.63" y="223.5" ></text>
</g>
<g >
<title>efa_mr_regattr (1 samples, 1.16%)</title><rect x="421.6" y="197" width="13.7" height="15.0" fill="rgb(221,50,32)" rx="2" ry="2" />
<text  x="424.63" y="207.5" ></text>
</g>
<g >
<title>efa_poll_sub_cqs (2 samples, 2.33%)</title><rect x="37.4" y="165" width="27.5" height="15.0" fill="rgb(240,50,53)" rx="2" ry="2" />
<text  x="40.44" y="175.5" >e..</text>
</g>
<g >
<title>libefa::Node::getNTxCompletion (10 samples, 11.63%)</title><rect x="10.0" y="341" width="137.2" height="15.0" fill="rgb(234,208,48)" rx="2" ry="2" />
<text  x="13.00" y="351.5" >libefa::Node::get..</text>
</g>
<g >
<title>ioctl_write (1 samples, 1.16%)</title><rect x="421.6" y="69" width="13.7" height="15.0" fill="rgb(208,90,13)" rx="2" ry="2" />
<text  x="424.63" y="79.5" ></text>
</g>
<g >
<title>pthread_spin_lock (3 samples, 3.49%)</title><rect x="106.0" y="165" width="41.2" height="15.0" fill="rgb(246,200,5)" rx="2" ry="2" />
<text  x="109.05" y="175.5" >pth..</text>
</g>
<g >
<title>clone (43 samples, 50.00%)</title><rect x="10.0" y="485" width="590.0" height="15.0" fill="rgb(229,98,3)" rx="2" ry="2" />
<text  x="13.00" y="495.5" >clone</text>
</g>
<g >
<title>cq_next_sub_cqe_get (1 samples, 1.16%)</title><rect x="51.2" y="133" width="13.7" height="15.0" fill="rgb(234,168,50)" rx="2" ry="2" />
<text  x="54.16" y="143.5" ></text>
</g>
<g >
<title>__libc_accept (7 samples, 8.14%)</title><rect x="435.3" y="293" width="96.1" height="15.0" fill="rgb(211,55,45)" rx="2" ry="2" />
<text  x="438.35" y="303.5" >__libc_accept</text>
</g>
<g >
<title>rxr_ep_progress_internal (1 samples, 1.16%)</title><rect x="545.1" y="213" width="13.7" height="15.0" fill="rgb(250,75,37)" rx="2" ry="2" />
<text  x="548.12" y="223.5" ></text>
</g>
<g >
<title>ofi_bufpool_get_ibuf (1 samples, 1.16%)</title><rect x="92.3" y="149" width="13.7" height="15.0" fill="rgb(216,163,13)" rx="2" ry="2" />
<text  x="95.33" y="159.5" ></text>
</g>
<g >
<title>efa_cqe_is_pending (1 samples, 1.16%)</title><rect x="51.2" y="117" width="13.7" height="15.0" fill="rgb(207,148,31)" rx="2" ry="2" />
<text  x="54.16" y="127.5" ></text>
</g>
<g >
<title>ibv_poll_cq (4 samples, 4.65%)</title><rect x="37.4" y="197" width="54.9" height="15.0" fill="rgb(213,182,52)" rx="2" ry="2" />
<text  x="40.44" y="207.5" >ibv_p..</text>
</g>
<g >
<title>munmap (1 samples, 1.16%)</title><rect x="558.8" y="277" width="13.8" height="15.0" fill="rgb(238,194,43)" rx="2" ry="2" />
<text  x="561.84" y="287.5" ></text>
</g>
<g >
<title>rdm_ep_poll_shm_cq (3 samples, 3.49%)</title><rect x="106.0" y="213" width="41.2" height="15.0" fill="rgb(241,72,17)" rx="2" ry="2" />
<text  x="109.05" y="223.5" >rdm..</text>
</g>
<g >
<title>pthread_spin_lock@plt (1 samples, 1.16%)</title><rect x="78.6" y="165" width="13.7" height="15.0" fill="rgb(222,126,28)" rx="2" ry="2" />
<text  x="81.60" y="175.5" ></text>
</g>
<g >
<title>SendRecvServer::batch (43 samples, 50.00%)</title><rect x="600.0" y="437" width="590.0" height="15.0" fill="rgb(216,59,0)" rx="2" ry="2" />
<text  x="603.00" y="447.5" >SendRecvServer::batch</text>
</g>
<g >
<title>ft_post_tx (1 samples, 1.16%)</title><rect x="531.4" y="325" width="13.7" height="15.0" fill="rgb(210,195,38)" rx="2" ry="2" />
<text  x="534.40" y="335.5" ></text>
</g>
<g >
<title>start_thread (43 samples, 50.00%)</title><rect x="10.0" y="469" width="590.0" height="15.0" fill="rgb(241,94,51)" rx="2" ry="2" />
<text  x="13.00" y="479.5" >start_thread</text>
</g>
<g >
<title>fi_sendmsg (1 samples, 1.16%)</title><rect x="531.4" y="293" width="13.7" height="15.0" fill="rgb(220,8,37)" rx="2" ry="2" />
<text  x="534.40" y="303.5" ></text>
</g>
<g >
<title>ofi_cq_progress (1 samples, 1.16%)</title><rect x="545.1" y="245" width="13.7" height="15.0" fill="rgb(251,214,24)" rx="2" ry="2" />
<text  x="548.12" y="255.5" ></text>
</g>
<g >
<title>rxr_ep_progress (1 samples, 1.16%)</title><rect x="545.1" y="229" width="13.7" height="15.0" fill="rgb(210,166,1)" rx="2" ry="2" />
<text  x="548.12" y="239.5" ></text>
</g>
<g >
<title>fi_mr_regattr (1 samples, 1.16%)</title><rect x="421.6" y="245" width="13.7" height="15.0" fill="rgb(254,218,17)" rx="2" ry="2" />
<text  x="424.63" y="255.5" ></text>
</g>
<g >
<title>rxr_ep_progress (10 samples, 11.63%)</title><rect x="10.0" y="245" width="137.2" height="15.0" fill="rgb(228,71,0)" rx="2" ry="2" />
<text  x="13.00" y="255.5" >rxr_ep_progress</text>
</g>
<g >
<title>ft_free_res (1 samples, 1.16%)</title><rect x="558.8" y="309" width="13.8" height="15.0" fill="rgb(236,200,32)" rx="2" ry="2" />
<text  x="561.84" y="319.5" ></text>
</g>
<g >
<title>ofi_bufpool_grow (1 samples, 1.16%)</title><rect x="545.1" y="165" width="13.7" height="15.0" fill="rgb(229,17,32)" rx="2" ry="2" />
<text  x="548.12" y="175.5" ></text>
</g>
<g >
<title>rxr_msg_post_rtm (1 samples, 1.16%)</title><rect x="531.4" y="261" width="13.7" height="15.0" fill="rgb(215,42,21)" rx="2" ry="2" />
<text  x="534.40" y="271.5" ></text>
</g>
<g >
<title>fi_cq_read (1 samples, 1.16%)</title><rect x="545.1" y="277" width="13.7" height="15.0" fill="rgb(207,220,20)" rx="2" ry="2" />
<text  x="548.12" y="287.5" ></text>
</g>
<g >
<title>rxr_ep_get_peer (1 samples, 1.16%)</title><rect x="92.3" y="165" width="13.7" height="15.0" fill="rgb(230,215,38)" rx="2" ry="2" />
<text  x="95.33" y="175.5" ></text>
</g>
<g >
<title>pthread_spin_lock (1 samples, 1.16%)</title><rect x="64.9" y="165" width="13.7" height="15.0" fill="rgb(228,155,3)" rx="2" ry="2" />
<text  x="67.88" y="175.5" ></text>
</g>
<g >
<title>rxr_mr_regattr (1 samples, 1.16%)</title><rect x="421.6" y="229" width="13.7" height="15.0" fill="rgb(233,142,47)" rx="2" ry="2" />
<text  x="424.63" y="239.5" ></text>
</g>
<g >
<title>libefa::Node::~Node (1 samples, 1.16%)</title><rect x="558.8" y="325" width="13.8" height="15.0" fill="rgb(210,27,7)" rx="2" ry="2" />
<text  x="561.84" y="335.5" ></text>
</g>
<g >
<title>rxr_pkt_post_ctrl_once (1 samples, 1.16%)</title><rect x="531.4" y="213" width="13.7" height="15.0" fill="rgb(221,110,53)" rx="2" ry="2" />
<text  x="534.40" y="223.5" ></text>
</g>
<g >
<title>rxr_msg_post_cuda_rtm (1 samples, 1.16%)</title><rect x="531.4" y="245" width="13.7" height="15.0" fill="rgb(243,202,10)" rx="2" ry="2" />
<text  x="534.40" y="255.5" ></text>
</g>
<g >
<title>ft_sync (1 samples, 1.16%)</title><rect x="545.1" y="325" width="13.7" height="15.0" fill="rgb(252,156,29)" rx="2" ry="2" />
<text  x="548.12" y="335.5" ></text>
</g>
<g >
<title>rxr_ep_progress_internal (8 samples, 9.30%)</title><rect x="37.4" y="229" width="109.8" height="15.0" fill="rgb(246,39,9)" rx="2" ry="2" />
<text  x="40.44" y="239.5" >rxr_ep_progre..</text>
</g>
<g >
<title>ibv_cmd_reg_mr (1 samples, 1.16%)</title><rect x="421.6" y="101" width="13.7" height="15.0" fill="rgb(222,5,10)" rx="2" ry="2" />
<text  x="424.63" y="111.5" ></text>
</g>
</g>
</svg>
